<svg xmlns="http://www.w3.org/2000/svg" viewBox="0 0 834.9 217.87"><defs><style>.cls-1{fill:#e60a16;}</style></defs><g id="Camada_2" data-name="Camada 2"><g id="Camada_1-2" data-name="Camada 1"><path class="cls-1" d="M26.12,8.42l2.5-1.21c.37,0,.56.24.56.74l8.34-1.38a43.84,43.84,0,0,0,7.22.57H47a6.28,6.28,0,0,0,1.53,1.18l26.82-.11V12a4,4,0,0,1,1.66-.6v3.81c-.22.47-.33.7-.56,1.17,1.11.49,1.67.92,1.67,1.31l1.11-.6h.56l1.66,1.15c0-.77.74-1.17,2.23-1.18v-.73L82,13.88v-.59a5.09,5.09,0,0,1,3.34,3l1.11-.59H87v2.48q6.12-.06,6.1,13.6c.37,0,.55.19.55.58a.51.51,0,0,1-.55.59l.55,3.18v3c-.22,1.23-.33,1.84-.56,3.07.84,0,1.39,1,1.67,3.16a1.12,1.12,0,0,0-1.11,1.18c0,.76,0,1.14,0,1.89,0,1.26.19,1.88.56,1.88a65.28,65.28,0,0,1-1.12,8,1.14,1.14,0,0,1,1.11,1.28v.58c-.22,1.52-.33,2.28-.56,3.79a5,5,0,0,1,.56,2.46L93,67.13a7.18,7.18,0,0,1,1.11,3c-.37,0-.55.26-.55.74l1.11.55c-.38,2-.75,3.07-1.12,3.08.22.52.33.78.56,1.29a5.09,5.09,0,0,0-.56,2.49l-.56,0-2.22-1.81-1.11,0a5.26,5.26,0,0,1-1.11,2.52l1.11,0a4.32,4.32,0,0,1,1.66-.65c.23.46.34.69.56,1.15L93,78.9l1.11.54c0,5.23-3.53,11.16-10.57,17.91l-.56,0-1.11-.68-.55,0v.73l3.32,2.91q11.1,3.69,11.1,13.11c0,.39.18.58.55.56a8.41,8.41,0,0,0-1.12,3.83c.23,1.21.34,1.81.56,3l-.56,0,2.22,4.22-1.11.65.55,1.27a5,5,0,0,0-.56,1.92c.74.05,1.11.42,1.11,1.09v.58c-.22.54-.33.81-.56,1.34l1.11.51-.55,1.34c0,1.16.18,1.73.55,1.71-.22,1.29-.34,1.93-.56,3.22,0,1.74,0,2.61,0,4.35-.65.92-1.2,3.23-1.67,6.94-.37,0-.56.42-.56,1.2a24.92,24.92,0,0,1,1.11,4.85,6,6,0,0,1-.56,1.93l.55,3.73v.58l-1.11.08c0,3.2,0,4.79,0,8a53.21,53.21,0,0,0,.55,6.77c-.56,1.7-1.12,2.56-1.67,2.61a4.06,4.06,0,0,0-2.22-.4.56.56,0,0,1-.56.63v-.58c.23-.54.34-.81.56-1.35l-2.22.18c0,2.14-.19,3.22-.56,3.25l.55,1.12-1.11,2v1.89l1.11-.1v1.17l-2.22.92c-.22-.5-.33-.76-.56-1.26,0-1.22,0-1.84,0-3.06l-.56.05L83.44,190c0,.49-.55.78-1.66.88.09.77.46,1.13,1.1,1.07l2.23-1.37,1.1.48q1-.09,5-3.65l-.55-1.12A11.6,11.6,0,0,1,94,181.11l.55,1.11V183a5.93,5.93,0,0,1-.56,2.51,4.84,4.84,0,0,1,.55,2.42,27.81,27.81,0,0,1-4.45,12.18c0,1.94-2.78,5.3-8.34,10.14l-3.88.4a3.88,3.88,0,0,1-3.05-1.3l-.69.07c.16.33.25.5.41.84l-1.11.84-1.11-.62-2.22,1L67.33,211a38.55,38.55,0,0,1-7.21,1.5l-3.32-.38a4,4,0,0,1-2.22,1c-1.85.2-2.78-.14-2.77-1l-1.11.71-1.11.13c-.37,0-.56-.14-.56-.54l-1.11.72-1.1-.47a.58.58,0,0,0-.56.66L43.49,213l-2.77.31a6.8,6.8,0,0,1-3.88,2.38c-1.85.22-7.76.69-17.73,1.49-.45.29-.67.44-1.11.74-2.59-.2-3.88-.69-3.88-1.5l-1.11.74c-.37,0-.69-.22-1-.79-4.81.58-7.22.88-12,1.48V194.47c4.76-.54,7.15-.8,11.91-1.31v-4.25a5.15,5.15,0,0,0-.55-2.51c.28-.84.64-4.11,1.11-9.81l-.55-3.28q0-2,2.77-6.62l.55-4L13,165.48l.55,1.31a1.15,1.15,0,0,1-1.11,1.32L11.92,167V162.4l.55-4A11,11,0,0,1,11.36,154c0-.41.19-.63.56-.66l-.55-3.13q.83-7.2,2.22-7.3l.55,0A1,1,0,0,1,15.25,144c0,.9-.74,1.42-2.22,1.54l.55,3.13c2.59-.22,3.89-1.58,3.89-4.1-.74.06-1.11-.36-1.11-1.27v-1.21c1-.08,1.75-1.24,2.22-3.49a2.78,2.78,0,0,0-3.33-2.32l-.55,1.41c.36,0,.55.16.55.56l-2.77,2.18c-.23-.53-.34-.79-.56-1.32v-6.36a5.3,5.3,0,0,0-.55-2.54c.37-1.33.74-2,1.11-2a3.7,3.7,0,0,0,1.66.48c0-1.31-.74-1.91-2.22-1.81a6.12,6.12,0,0,1,2.22-4.7,4.63,4.63,0,0,1-.55-1.77l.56,0q-2.22-3.18-2.22-5v-1.37a60,60,0,0,1,.55-7.15,4.77,4.77,0,0,1-.55-1.94c.55,0,1.11-.67,1.66-1.91-.74,0-1.11-.39-1.11-1.3v-1.36c0-.4.18-.62.55-.64l-.55-1.18L13,95.08A35.59,35.59,0,0,1,12.49,90l.55,0a8,8,0,0,1-1.11-3.73c0-2.22.37-3.35,1.11-3.38q-1.11-10.09-1.1-11.47.56-6.84.55-11.07l-.55-1.35a5.05,5.05,0,0,0,.55-1.83c-.44-1-.66-1.53-1.11-2.54q.7-9.12,1.67-11.11c-1.11,0-1.66-.36-1.66-1.17v-.76l1.11,0V35.74l-1.11.63h-.56v-.6c0-.31.56-1,1.67-2-.22-.48-.33-.72-.56-1.2l.42-.91L0,31.88V8.54l10.56,0A.91.91,0,0,1,11.39,8h3.34l.55.45H17V8a33.12,33.12,0,0,0,6.12-.78A3.48,3.48,0,0,0,24.73,8c0-.5.19-.75.56-.75l.55,1.2ZM13,130.05v4.85l1.11-.09,1.67-1.33c-.47-2.38-1-3.55-1.67-3.51ZM13.61,16.8V18c.74,0,1.12-.41,1.12-1.22Zm0,107.16v1.21l.55,0v-1.21Zm.56-27.88c.09.8.46,1.19,1.11,1.15.22-.5.33-.74.56-1.24Zm0,16.34v3l1.11-.07v-3Zm0,38.74v.6l1.11-.09v-.61Zm.58-115.61v.6c.09.81.46,1.2,1.11,1.19l1.67,0v-.6a3.86,3.86,0,0,1-2.22-1.16Zm0,84.1v.6l2.77-.18q0-1.21-1.11-1.14A4.43,4.43,0,0,1,14.7,119.65Zm0,28.43v.61l1.11-.09a.57.57,0,0,1,.56-.65l1.11,1.72c0,.24,0,.36,0,.6-.74.06-1.1.3-1.1.7.36,1.18.73,1.75,1.1,1.72a4.66,4.66,0,0,1,1.67-.75v.61l1.11-.7L23,153.43a4.39,4.39,0,0,1,1.66-.74v-.61q0-1.05-5.54-2c-.83-1.94-1.76-2.87-2.77-2.79A4.26,4.26,0,0,1,14.69,148.08Zm0,4.24v.6c.09.8.46,1.17,1.11,1.12l1.11-.1c0-.6-.55-1.16-1.66-1.67ZM15.81,102v.6l1.11-.06V102Zm2.76,65v1.21L15.8,168v.6c0,.61.55,1.16,1.66,1.66l1.11-.11c0-.8.55-1.26,1.66-1.36C20.23,168.14,19.68,167.59,18.57,167.08ZM16.93,70.55v1.81l1.67-.06v-.61c0-.8-.37-1.19-1.11-1.16Zm0,90.65v.6l1.66-.15v-.6Zm0,2.41v1.21l1.1-.1C18,163.92,17.65,163.55,16.91,163.61ZM18.05,58.43a5.18,5.18,0,0,1-.56,2.43q0,1.22,4.44,3.47l-1.11,1.85v.6l.56,0c1.2-1.25,2.13-1.88,2.77-1.91v-1.8L23,63.69c-.55,0-1.11-.56-1.66-1.75v-.6l.55,0a3.74,3.74,0,0,0,1.67.54v-.6q0-.75-3.33-2.9c-.37,0-.56.22-.56.62l-1.11-.57Zm-.58,58.62,1.11-.08v-1.2A1.21,1.21,0,0,0,17.47,117.05Zm.58-62.24v.6l1.11,0v-.61Zm0,1.2v1.21c.74,0,1.11-.43,1.11-1.24Zm0,58v.6l1.66-.1v-.6Zm.54,42.83a5.27,5.27,0,0,1-.55,1.86l.55-.05a1.13,1.13,0,0,0,1.11-1.3v-.6Zm.58-86.35v.6L20.82,71v-.6Zm1.11,1.16v1.81l.56,0c.74,0,1.11-.45,1.11-1.25v-.61Zm.53,69.92v.61c.1.8.47,1.17,1.11,1.12v-1.81Zm.6-118.19V24H22.5v-.6Zm.55,18.07V42l1.11,0v-.6Zm.57-23.51v.61l1.11,0v-.6Zm0,49.4v1.21l.55,0V67.3Zm0,86.76v3L23,157c.55,0,1.11-.7,1.66-1.95L23,154Zm0,3.61v.6l1.11-.09v-.6Zm2.81-80.84A3.93,3.93,0,0,0,23,76.34v2.41a4.32,4.32,0,0,0,2.22-.7,4.36,4.36,0,0,0,2.77.48,4.67,4.67,0,0,1-.55-1.78c.37,0,.56-.22.56-.62-.38,0-.56-.18-.56-.58ZM23,119.7v1.2l1.11-.07v-1.2Zm.58-71.08a4,4,0,0,1,1.67.56V47.37l-.55,0A1.16,1.16,0,0,0,23.6,48.62Zm.56,5.4v.6l.55,1.19a4.18,4.18,0,0,1,1.67-.65v-.6Zm0,42.13v.61l1.11-.06v-.6Zm0,36.12v1.2l1.11-.08a5.35,5.35,0,0,1,.55-2.45l-.55,0A1.23,1.23,0,0,0,24.13,132.27Zm.53,49.9-.55,1.26,1.66-.17C25.77,182.46,25.4,182.1,24.66,182.17Zm-.56,8.48v.6l1.11-.11v-.6Zm.61-125.81v1.8c.55,0,1.11-.64,1.66-1.86Zm.54,25.84v.6l1.11,0v-.6Zm0,44.52v1.2l1.11-.08C26.34,135.52,26,135.14,25.23,135.2Zm0,18.64a4.79,4.79,0,0,1,.55,1.76,4.39,4.39,0,0,1,1.66-.74c0-.24,0-.36,0-.6q0-1.2-1.11-1.11Zm.55,4.17c-.22,1.46-.33,2.19-.56,3.65l1.11-.1c0-.8.19-1.21.56-1.25-.22-.46-.33-.69-.56-1.15.23-.5.34-.75.56-1.25Zm-.57,27.11v.6l1.11-.11V185Zm.56-11.48v.6l1.11-.1v-.6ZM26.93,69v3c.09.8.46,1.18,1.11,1.16a7.13,7.13,0,0,0,1.11-3l-1.67-1.14Zm0,4.81v.6l1.11,0v-.6Zm.57-41.48v.6c.74,0,1.11-.41,1.11-1.22v-.6A1.14,1.14,0,0,0,27.5,32.29Zm0,22.83q.14,1.2,1.11,1.17l.56,0c0-.79-.37-1.18-1.11-1.16Zm0,28.24v1.2l2.22-.1a4.7,4.7,0,0,1-.56-1.77A4.12,4.12,0,0,1,27.48,83.36Zm0,74.5c.09.8.46,1.16,1.11,1.11l1.11-.1c0-.8-.37-1.17-1.11-1.1ZM28.05,46.7v.6c0,.6.55,1.19,1.66,1.76.23-.49.34-.73.56-1.22v-1.2Zm0,18v.6a4,4,0,0,1,2.22.52V64A4.3,4.3,0,0,1,28,64.72Zm1.09,49.18c.09.8.46,1.17,1.11,1.13l.55-1.23Zm.58-54v.6l1.11,0v-.6Zm0,13.2c.74,0,1.11.16,1.11.56L31.92,73l1.11.56,1.12-1.84-.56,0-1.11.64c0-.8-.37-1.18-1.11-1.15C30.81,71.22,30.26,71.84,29.7,73.06Zm.54,31.77v.6q1.11-.06,1.11-1.26v-.6A1.19,1.19,0,0,0,30.24,104.83Zm0,60.59v1.2l1.67-.15v-1.19Zm.55,4.15c0,1.2-.18,1.82-.55,1.85.55,1.55,1.11,2.3,1.66,2.25l1.11-.11v-1.19l-1.11.1v-.6a.57.57,0,0,1,.56-.65,4.58,4.58,0,0,1-.56-1.75ZM30.2,199v.6a1.15,1.15,0,0,0,1.1-1.32v-.6A1.26,1.26,0,0,0,30.2,199Zm.62-135.6a5,5,0,0,1,.55,2.38l3.89-.74a6.55,6.55,0,0,1-1.11-3A4.75,4.75,0,0,1,30.82,63.42Zm0,24.59v.6l1.11,0V88Zm1.07,70.67a1.13,1.13,0,0,1-1.11,1.3v1.2l1.11-.1c0-.6.55-1.45,1.66-2.54Zm.07-136v1.19h.56v-1.2ZM32.5,38.8V40l.55,0V38.79ZM33,113.66v.6l1.11-.07v-.6ZM45.28,37.79q0,25.51,0,51c5.44-2.28,8.16-3.41,13.61-5.65q6.94-2.81,7-16.19c0-6.77,0-10.16,0-16.93q0-12.66-8.74-12.5Zm-.06,79.6q0,34.52,0,69c5.44-.53,8.15-.79,13.59-1.3q6.93-.66,6.95-15.08,0-25,0-50.06,0-12.66-6.09-9.37C53.88,113.3,51,114.66,45.22,117.39Zm20-4.43.55,0a1.08,1.08,0,0,0,1.11-1.24l-.55,0A1.18,1.18,0,0,0,65.21,113Zm0,2.35v.59l1.11-.06v-.59Zm.55,7v.59c.56,0,1.11-.66,1.67-1.87l-.56,0A1.19,1.19,0,0,0,65.75,122.35Zm2.78,2.18c-1.86,1.88-2.78,3.32-2.78,4.3l1.66-.11q0-2.94,3.34-3.15V125Zm-1.13,18.9a1.1,1.1,0,0,1-1.11,1.26l.55,1.14v.58l-1.11.09a4.41,4.41,0,0,1,.55,1.72l2.22-.16L68,146.92l1.67-3.06Zm-1.1-14.05v1.18l.55,0v-1.17ZM68,131c0,.59-.55,1.41-1.66,2.46l.55,0c.56,0,1.11-.67,1.67-1.88V131Zm-1.09-17v.59l1.11-.06V114Zm0,21.19,1.11-.07V134A1.2,1.2,0,0,0,66.85,135.23Zm0,42.38v.59c.09.78.46,1.13,1.11,1.08l.55-.05v-2.35A4.5,4.5,0,0,1,66.81,177.61ZM68,62.8c-.22.48-.33.71-.56,1.19a4.19,4.19,0,0,1,2.78,1.09l.56,0c0-1.17,1.11-1.8,3.33-1.86v-.59l-2.78.08-.55,1.2A5.67,5.67,0,0,0,68,62.8Zm-.64,88.87c.09.78.46,1.14,1.11,1.09v-1.17Zm0,15.3c0,.49,1.3,1.17,3.89,2a1.67,1.67,0,0,1-1.67,1.9v.59l1.11-.1a.55.55,0,0,1,.55-.63c0,.39.19.57.56.54.44-1.45.67-2.17,1.11-3.61-1.48.12-2.22-.6-2.21-2.17A8.88,8.88,0,0,1,67.37,167ZM68.62,26.32a4.93,4.93,0,0,1-.55,1.77l1.11.57c.74,0,1.11-.4,1.11-1.19s-.37-1.17-1.11-1.16Zm-.56,6.48v.58a4.25,4.25,0,0,1,1.67.57l.55-1.19c0-.7,0-1.06,0-1.76h-.56C69.17,31,68.62,31.61,68.06,32.8Zm-.12,123v1.17l2.22-.17v-1.18Zm0,14.7V171L69,171v-.59Zm0,1.18c0,.47,0,.71,0,1.18l1.11-.1v-1.17Zm0,2.35v.59l1.11-.1v-.58Zm1.21-94.75A4.89,4.89,0,0,1,68.57,81c1.11,0,1.66.72,1.66,2.29l1.11,0-.55-1.15c.55,0,1.11-.63,1.67-1.83-1.11,0-1.67-.32-1.67-1.11Zm0,34.69a.55.55,0,0,1-.55.62,6.19,6.19,0,0,1,.55,2.9l1.11-.06a6.51,6.51,0,0,1,.56-3A3.92,3.92,0,0,1,69.09,113.92Zm0,5.29v.59l1.11-.07v-.59Zm.55,1.73.55,1.14a1.18,1.18,0,0,0-1.11,1.24l1.11.52.56,0v-2.94Zm1.71-48.85a6.85,6.85,0,0,1-1.67,3.59l1.12.54.55,0c.19-1.57.74-2.37,1.67-2.41a4.48,4.48,0,0,1-.55-1.74ZM69.63,127.4V128l1.11-.07v-.59Zm.55,4.08a4.66,4.66,0,0,1,.56,2.32l.55,0a1.09,1.09,0,0,0,1.11-1.25v-1.17Zm.55,5.25a4.84,4.84,0,0,1-.55,1.8l1.11.52L72.4,139a4.65,4.65,0,0,1-.56-2.31Zm-.56,10.62v1.76l.55,0a1.1,1.1,0,0,0,1.11-1.26v-.58Zm0,2.94v.58l1.66-.12v-1.17A4.61,4.61,0,0,1,70.17,150.29ZM83.61,38.39c1.11,0,1.67,1.33,1.67,4s-1.86,4.12-5.57,4.21c0,.78,1.3,1.33,3.89,1.66v.59c-1.11,0-1.67.43-1.67,1.2l1.11,0v1.75q-.42,0-3.33-3.43a4.73,4.73,0,0,0-.55,1.77,4.72,4.72,0,0,1,.55,1.74l-.56,0c-.92,0-1.48-.75-1.66-2.3l-2.78.06-2.78-.52v1.18c1.11,0,2,.93,2.78,2.86a5.35,5.35,0,0,1,2.77.51c-.65,2.76-1.39,4.14-2.22,4.17-.22-.47-.33-.7-.56-1.16,1.11,0,1.67-.44,1.67-1.22l-1.11,0a4.23,4.23,0,0,1-1.67.63L73,55c.37,0,.55-.2.55-.6l-1.11,0a4.26,4.26,0,0,1-1.66.64q1.38,4.06,2.21,4h.56V57.35l1.11,0-.55,1.18c.83,0,1.57.94,2.22,2.87l.55,0v.59l-1.67,3c1.48,0,2.22,1.1,2.22,3.44a4.13,4.13,0,0,0-1.67-.53c0,.39-.18.6-.55.61a4.75,4.75,0,0,1-.56-2.33l-.55,0a4.5,4.5,0,0,1-2.78,1.26c.09.69,1,2.22,2.77,4.6,0,.4-.18.6-.55.61l.55,1.15v.59c-1.11,0-1.67.45-1.67,1.23v.59c.46-.41,1.76-.65,3.89-.73v-.58a4.05,4.05,0,0,1-1.66-.53l.55-1.19v-.59c0-.39-.18-.58-.55-.57l.55-1.19-.55-1.15.56,0c1.11,0,1.66.73,1.66,2.29,1.33-1.69,2-2.53,3.34-4.21V67.1c-1.11,0-1.67-.33-1.67-1.11V65.4l2.78-.09V69.4l-1.11,0c0,.47,0,.7,0,1.17l1.67-1.22c.74.07,1.11.45,1.11,1.13s-.37,1.18-1.11,1.2l.55,1.15v.59l-1.66.05c-.75,0-1.11-.54-1.11-1.71L78,71.86c0,1.17-.37,1.77-1.11,1.79l.55,1.15Q75.65,79,75.24,79l-1.67.06c-.22,1-.34,1.42-.56,2.37l1.11-.63c.09.78.46,1.16,1.11,1.13l.56,0q0-1.75,1.11-1.8v.58A4.39,4.39,0,0,1,79.12,80v-.58c-1.11,0-1.66-.33-1.66-1.11V77.15l.55,0,1.12.54c0-1.56.37-2.35,1.11-2.38.09.78.46,1.15,1.11,1.13q0-1.47,4.45-2.5l.55-1.18-.55,0a4.52,4.52,0,0,1-1.67.64V72.23c.37-1.18,1.48-1.8,3.34-1.86v-.59c-1.11,0-1.86-.9-2.22-2.84a4.13,4.13,0,0,0-1.67-.53v-.58c.22-.48.34-.71.56-1.19l1.11.55a4.37,4.37,0,0,1,2.22-.65l-.55,1.18h.55a4.29,4.29,0,0,1,1.67-.64v-.58c0-1.07-.93-1.62-2.78-1.66.1-.78.47-1.18,1.12-1.2l1.66-.05V59.83L88,59.28a4.37,4.37,0,0,1-2.22.65h-.55v-.58c0-.39.18-.59.55-.6l-.55-1.15V56.44c.22-.47.33-.71.56-1.18-.75,0-1.11-.36-1.11-1.14.66-.95,1-1.42,1.67-2.37l1.11.55,1.11,0a4.89,4.89,0,0,1,1.11-2.94v-.59c-.74,0-1.11-.16-1.11-.55.23-.47.34-.71.56-1.18a4.55,4.55,0,0,1-.55-1.73c2.22-.83,3.33-1.62,3.33-2.4q-1.11,0-1.11-1.14A6.71,6.71,0,0,0,92,38.82c-.37-1.54-1.11-2.31-2.22-2.29h-.56v.58l1.11,0v.58c-.22.47-.33.71-.56,1.18.37,0,.56.18.56.57-.74,0-1.11,1-1.11,2.93h-.56c-.56,0-1.11-.56-1.67-1.71,0-.24,0-.35,0-.58,1.11,0,1.66-.42,1.66-1.2-.83,0-1.38-1-1.66-2.89h-.56C84.54,37,83.61,37.8,83.61,38.39Zm-12.79,9V48L73.05,48v-.58Zm.51,49.91a5,5,0,0,1-.56,1.79l1.11.53A1.07,1.07,0,0,0,73,98.44c0-.78-.37-1.16-1.11-1.12Zm-.56,6.49v.58a3.94,3.94,0,0,1,1.66.5l.56-1.2V102l-.55,0C71.88,102,71.32,102.63,70.77,103.84Zm0,25.84v1.18l.56,0v-1.17Zm.5,59.87a5.09,5.09,0,0,1-.56,1.82l1.11.48a1.12,1.12,0,0,0,1.11-1.28c0-.78-.37-1.14-1.11-1.07Zm-.57,6.52v.58a3.92,3.92,0,0,1,1.67.43l.55-1.23v-1.76l-.56.06C71.79,194.2,71.23,194.84,70.67,196.07Zm.73-171V31c.74,0,1.11-.41,1.11-1.19-.22-.47-.33-.7-.56-1.17l1.12-.6A6.51,6.51,0,0,1,72,25.1Zm-.15,147.41v1.18l2.22.39v-1.17A4,4,0,0,1,71.25,172.52Zm.69-133.33v1.18l2.78.53c.22-.48.33-.71.56-1.19Zm-.1,104.51v1.18L73,144.8v-1.17ZM72.5,37.42V38l1.11,0V37.4Zm1.12-5.89c-.23,1.65-.34,2.47-.56,4.12l1.67,0c0-.78.18-1.18.55-1.18a6.21,6.21,0,0,1-.55-2.92Zm-.68,116.2c0,.79.56,1.14,1.67,1.06l.55,0v-.59Zm0,27v.58l1.1-.09v-.59Zm.65-97.44v.59l1.11,0v-.59Zm0,42.83v1.17l.55,0v-1.17Zm.52,29.29-.55,1.22,2.22-.17v-.58A4,4,0,0,1,74.05,149.41Zm-.57,18.82v1.17c.09.78.46,1.13,1.1,1.08l1.11-.09C75.7,169.8,75,169.08,73.48,168.23Zm2.31-85.16a3.94,3.94,0,0,1-1.67,3,4.53,4.53,0,0,0,.55,1.74,49,49,0,0,0-.56,6.47v.59l1.11-.05v3.51c.09.78.46,1.15,1.1,1.12l.56,0L78,98.79A10.76,10.76,0,0,0,75.78,93v-.58l.55,0,1.11.54,1.12-1.81c-1.12,0-1.67-.12-1.67-.51l-1.11.63-.56,0v-.59c.75-1.59,1.3-2.4,1.67-2.41l1.11.53.56,0v-.58l-1.11,0V87.1L80.23,87a4.51,4.51,0,0,1-.56-1.73c-.44.26-.66.38-1.11.63l-1.11.05L76.9,83Zm-1.7,25.87v1.18l1.11-.06v-1.18ZM74,182.84v2.94c1.48-.73,2.22-1.38,2.23-2v-1.17Zm0,7v1.17l1.11-.1C75.12,190.17,74.75,189.81,74,189.88Zm.73-163.64.55,2.92c1.48-.6,2.22-1.2,2.22-1.79Q77,25.63,76.4,25.63A4.29,4.29,0,0,1,74.74,26.24Zm0,17v3.52h.56l2.22-1.81.56,1.16,1.11-.61,3.89.5a4.5,4.5,0,0,1,1.11-2.36v-.58l-1.66,0v1.17c-3-.33-5-.87-6.11-1.63A4.06,4.06,0,0,1,74.72,43.24Zm-.14,130.17v1.18l.56-.05v-1.17Zm.7-137.8v.59l1.11,0v-.59Zm-.09,85.58v.59l1.11-.07v-.58Zm0,31.66v.58l1.11-.08v-.58Zm.61-50.44q.14,1.17,1.11,1.11l.55,0c0-.78-.37-1.16-1.11-1.12Zm1.66,4c0,.79.55,1.15,1.66,1.09v1.75c0,1.17-.74,1.8-2.22,1.88.44.91.66,1.37,1.11,2.28a4.43,4.43,0,0,1-1.67.68c.44.68.66,1,1.11,1.69l1.11-.64.55,0v1.18l-.55,1.2,1.11.52.55,0c0-.78.56-1.2,1.67-1.27l-.55-2.89a.53.53,0,0,0,.55-.61c-1.48.08-2.22-.47-2.22-1.64a6.94,6.94,0,0,0,1.12-3q-1.11.06-1.11-1.11a1.07,1.07,0,0,0,1.11-1.23v-1.17A4.86,4.86,0,0,1,77.43,106.42Zm-1.13,19.4v1.75c1.12-.07,1.67.29,1.67,1.07.74,0,1.3-1.44,1.67-4.2l-1.11-.52L78,124C77.41,124,76.85,124.61,76.3,125.82ZM77,23.87v.58h1.11v-.58Zm.52,35.71.55,0c3.34.69,5,1.42,5,2.2v.58c-.56,0-1.3.82-2.22,2.41l-1.12,0c0-2.34-.73-3.49-2.21-3.44Zm-.07,60.31v.59l3.33-.2v-.58Zm.66-92.52V28l2.22.56c0-.78-.55-1.16-1.67-1.15ZM78,104.64l1.66-.08a1.07,1.07,0,0,0,1.11-1.23c0-.7,0-1,0-1.75l-1.12,0C79,101.66,78.45,102.67,78,104.64Zm0,32.78V138l1.11-.08v-.58ZM84.73,30.78v.58h1.11q0,.58-3.33,3.55A3.62,3.62,0,0,0,78.62,32c.64,1.55,1.39,2.32,2.22,2.31v1.17c-1.11,0-1.67.41-1.67,1.19h.56c.74,0,1.11-.4,1.11-1.18l2.78,1.12c0-.39.18-.59.55-.6l-.55-1.16c0-.58.55-1.17,1.67-1.77a4.72,4.72,0,0,1,.55,1.74h.56c.74,0,1.11-.41,1.11-1.19V31.32a4.12,4.12,0,0,1-2.22-.55Zm-6.12,7.11v1.17c0,.59.56,1.16,1.67,1.73a4.88,4.88,0,0,1,.55-2.35l-1.11-.57Zm0,45.65v1.17a1.05,1.05,0,0,0,1.11-1.21Zm0,38.63v1.17l2.22-.13A1.08,1.08,0,0,0,81.85,122l-1.11-.52A4.43,4.43,0,0,1,78.52,122.17ZM79.16,42v.58l1.11,0V42Zm0,49.73v.59l1.11,0v-.59Zm0,39.79c0,.7,0,1.05,0,1.75l1.12-.07v-.58C80.18,131.82,79.81,131.45,79.07,131.5Zm.63-70.23v.59l1.11,0v-.58Zm.53,18.11-.55,3a6.15,6.15,0,0,1,2.77-1.28v-.58c0-.78-.36-1.16-1.1-1.13Zm.06-49.12v.59l1.66,0c0-.23,0-.35,0-.58Zm-.11,94.15V125l1.11-.06c0-.24,0-.35,0-.59Zm.67-97.66q1.8,3.48,2.77,3.46l-.55-2.91a4.71,4.71,0,0,0,.56-1.76l-1.67,0A1.12,1.12,0,0,0,80.85,26.75Zm0,28.06L83,54.75c0,.58-.74,1.19-2.23,1.81C80.82,55.86,80.82,55.51,80.82,54.81Zm0,2.92h.56c.74.07,1.11.45,1.11,1.13s-.37,1.18-1.11,1.2c-.23-.46-.34-.69-.56-1.15ZM83,84.53c0,.78-.19,1.18-.56,1.19a4,4,0,0,0-1.67-.51v1.17l2.22.49c.09-.78.47-1.19,1.12-1.22A4.82,4.82,0,0,1,84.67,88l1.11,0q0-1.76,1.11-1.8v2.34l1.11,0a5,5,0,0,1,1.11-3,4.49,4.49,0,0,1-3.33-1Zm-2.24,8.28a4.1,4.1,0,0,1,2.23.48l.55-1.19v-.58l-1.66.07A1.17,1.17,0,0,0,80.77,92.81Zm.48,74.2,1.66-.14a5.12,5.12,0,0,1,1.12-3l-.56,0C82.73,164.17,82,165.2,81.25,167Zm.68-115.15Q83,52,83,53v.58q-1.11,0-1.11-1.14Zm0,30.38v.58l1.66-.06.56-1.19-.56,0A4.16,4.16,0,0,1,81.9,82.24Zm.55,5.82v.58L83,89.79l-1.11,0V91l1.66-.07c.23-.94.34-1.41.56-2.36L83,88Zm-.58,15.8V105l.56,0v-1.17Zm0,7.6v1.16l.56,0v-1.16Zm0,34.47c0,.47,0,.7,0,1.17l.56,0v-1.17Zm1.75-82.44c.23.46.34.69.56,1.15l-1.67,0C82.56,63.91,82.94,63.51,83.58,63.49Zm-1.15,42.68v.58a1.06,1.06,0,0,0,1.11-1.22v-.59A1.17,1.17,0,0,0,82.43,106.17Zm.64-75.36c0,.7,0,1.05,0,1.75l1.12,0V30.79Zm.46,77.05v2.34q.14,1.15,1.11,1.11a4.31,4.31,0,0,1,1.67-3,4.37,4.37,0,0,1-.55-1.72l-1.11.06A1.17,1.17,0,0,0,83.53,107.86Zm.59-30.38v.59L86.9,78V76.8Zm0,36.19c.09.78.46,1.14,1.11,1.11v-1.17Zm0,2.34v.58l1.11-.06v-.59ZM84,186.63a4.35,4.35,0,0,1,.55,1.7,1.1,1.1,0,0,0,1.11-1.26c0-.24,0-.35,0-.59ZM84,189v1.16l.55,0v-1.16ZM85.23,79.19a5.07,5.07,0,0,1-.55,2.36l.55,0L88,80.84c0-.59-.56-1.15-1.67-1.69Zm.07-54.25v.58a4.68,4.68,0,0,1,.56,1.75c-.37,0-.56.2-.56.59l2.78.54a4.21,4.21,0,0,1,1.67-.6A4.58,4.58,0,0,0,85.3,24.94Zm-.06,50.17v1.17l.55,0V75.09Zm0,8.17,1.11,0V82.07A1.14,1.14,0,0,0,85.23,83.28Zm2.25-28.06L86.37,57h.56a6.07,6.07,0,0,1,2.77-1.24c0-.23,0-.35,0-.58ZM86.36,68.07v.59a3.89,3.89,0,0,1,1.66.52V68Zm-.11,92.13v.58l1.11-.09v-.58Zm.67-102.64v.59l1.12,0v-.58Zm1,134.55,1.66-.15q1.67-.59,1.67-4.8c0-.7,0-1,0-1.75Q90.24,185.5,87.88,192.11Zm0-5.24,1.11-.1v-1.16A1.22,1.22,0,0,0,87.88,186.87ZM89.68,73.2a4.49,4.49,0,0,1-1.11,2.37l.56,0c1.48-.63,2.22-1.24,2.22-1.82l-1.11-.54Zm-.54-6.38v.58l1.66-.05v-.58Zm.58-20.39v1.16l1.67,0q0-1.15-1.11-1.14Zm-.15,120.5v.58l1.11-.09v-.58Zm0,2.91v3.49l1.66-1.3,1.67-.13a4.86,4.86,0,0,0,.55-1.79c-.74.06-1.1-.49-1.1-1.65l-.56,0A4.4,4.4,0,0,1,89.57,169.84Zm.54,13.92v.59l1.66-.15v-.58Zm.67-99.54v.58l1.11,0v-.58Zm-.09,79.13v1.17l.55-.05v-1.16Zm.69-114v2.32l1.11,0V50.44Q92.49,49.27,91.38,49.3Zm0,26.76v.58l1.11,0V76Zm-.1,78.52v1.75l.56,0L93.47,155a4.25,4.25,0,0,1-.55-1.7l-.56,0A1.19,1.19,0,0,0,91.25,154.58Zm0,4.66a9.13,9.13,0,0,1,1.1,4A1.09,1.09,0,0,0,93.46,162a4.35,4.35,0,0,1-.55-1.7.56.56,0,0,0,.56-.63l-1.11-.5ZM91.91,72v1.74A1,1,0,0,0,93,72.51v-.58Zm0,9.88c0,.7,0,1.05,0,1.75l.56,0A4.63,4.63,0,0,1,93,81.81Zm-.11,85.49.56-.05a1.09,1.09,0,0,0,1.11-1.24l-.56,0A1.2,1.2,0,0,0,91.79,167.34Zm.56-3V165l1.11-.09v-.58ZM103.06,39.78h.56c.55,0,1.11.55,1.66,1.7v1.16a3.93,3.93,0,0,0-2.22-1.12Z"/><path class="cls-1" d="M152.35,149.3c-1.42,10-2.85,20-4.07,30l.56,0-.14.86,6.8-.48c0,8.26,0,12.39,0,20.66q-23.82,1.83-47.63,4c0-8.43,0-12.64,0-21.07l8.33-.67q1-11.3,2.1-11.37c-.22-.51-.33-.76-.56-1.26,0-.92,0-1.38,0-2.3a.54.54,0,0,1,.55-.61c2.32-19.07,4.21-38.37,7.86-57.26l-.55-1.12a78.13,78.13,0,0,1,1.68-8.66c-.37,0-.56-.17-.56-.55a7.15,7.15,0,0,1,1.12-3.62l-.56,0c.68-4.15,1-6.22,1.68-10.36l-.55,0c.9-5.81,1.34-8.72,2.24-14.52,1.67-15.12,3.35-30.25,5.21-45.35l-8.89.09c0-8.3,0-12.45,0-20.75l75.31-.14,0,20.18-9.59.08c.09,1.39.18,2.79.28,4.18l-.56,1.12q2.19,16,2.18,23.7v.56l.55,2.78L194,58c3.62,9.45,2.81,22.11,3.29,32-.23.45-.34.68-.56,1.13l1.11,0v1.12c-.22.45-.33.68-.56,1.13a.48.48,0,0,1,.56.54v.56c0,.84-.38,1.27-1.12,1.29V98a.51.51,0,0,0,.56-.58q1,0,1.11,1.08v1.12l-.55,1.13a.47.47,0,0,1,.55.54c-.22.45-.33.68-.56,1.13q.55,0,1.11,3.87c-.22.45-.33.68-.56,1.13l1.1,8.46c-.22.9-.33,1.35-.56,2.25a9.33,9.33,0,0,1,1.11,3.29c-.22.46-.34.69-.56,1.14l2.75,16.87-.55,1.14c.64,0,1,.32,1.11,1.06-.23.45-.34.68-.56,1.14l.55,0A84.93,84.93,0,0,0,205,162.8c-.23.45-.34.68-.56,1.14q.56,0,1.65,11.17a.53.53,0,0,0-.56.59q.28,0,.84.78l9.31-.51c0,8.1,0,12.14,0,20.23q-23.85,1.41-47.68,3.18c0-8.22,0-12.33,0-20.56l7.5-.49c-.37-2.4-.73-5.47-1.1-9.2q0-1-2.19-17.71c-.19-1.12-.32-2.19-.41-3.21C164,148.63,160.13,148.84,152.35,149.3Zm-43,58.08-1.11.11v-1.16l1.11-.1ZM127.19,169c0,1.37,0,2.06,0,3.43l1.11-.08c0-1.37,0-2.06,0-3.43Zm1.07,23.38v1.14l2.09-.17v-1.14Zm1-13.52c0,.91,0,1.37,0,2.29l1.11-.09c0-.91,0-1.37,0-2.28Zm1.15-29.1v2.15l1.11-.07V149.7Zm3.18,9.94v1l2.22-.15v-1Zm.87-24.31-.56,0v1.14a3.66,3.66,0,0,1,1.66,2.76l1.11-.06c0-1.15,0-1.72,0-2.86A3.68,3.68,0,0,1,134.46,135.4Zm1.32,43q0,2.28-1.11,2.37,0,5.7,3.18,5.46a2.38,2.38,0,0,1,2.23-2.45l-1.1-5.61Zm6.45-41.71-1.66.1-1.12.63-.55-1.11c-.56,0-1.11.82-1.67,2.37l1.67-.09,1.11-.63q0,.28,3.33,2.8l1.11-.07V140c-.74-.71-1.11-2.21-1.1-4.48A1.06,1.06,0,0,0,142.23,136.67Zm-3.88-2.06c0,.76.36,1.12,1.11,1.08V134ZM140,116.16c-.22,1.6-.34,2.4-.56,4V123l1.66-.09c0-2.73,0-4.09,0-6.83Zm-.57,12.69v.57c0,.77.36,1.12,1.11,1.08l.55,0C140.58,129.37,140,128.83,139.47,128.85Zm.62-42.59,1.11,0,1.11-.6-.55-1.12C140.64,85.11,140.09,85.69,140.09,86.26Zm2.24-16.71h-.55a1,1,0,0,1-1.12,1.17v1.71l2.23-.07q1,0,1.11-1.17C143.44,70.08,142.89,69.53,142.33,69.55Zm-.1,72.39c0,.22,0,.34,0,.57l1.12-.07v-.57Zm1.14-23.1V120l1.11,0v-1.14Zm.54,11.49-.56,0v3.41a5.68,5.68,0,0,1,2.78,1l1.11-.06Q144.6,130.29,143.91,130.33Zm.55,6.79c0,.76.36,1.12,1.1,1.08l.56,0v-.56l-.55-1.11ZM145,155v1.14l.56,0V155Zm1.84-109.13V47c.65,0,1-.39,1.12-1.15Zm-.14,90V137l1.11-.06Q147.79,136,146.68,135.86Zm1.83-107.77-1.11.58a1,1,0,0,0,1.11,1.12l1.67,0a4.37,4.37,0,0,1-.56-1.69ZM147.3,95.67a.94.94,0,0,0,1.11,1.09V95.62Zm.63-51q0,1.14,1.11,1.11V44.68ZM149.6,40v1.28h.56V40Zm.51,34.44-.56,0a4.31,4.31,0,0,1,.55,1.69l2.23-.07V74.94A4.26,4.26,0,0,1,150.11,74.43Zm2.21,9.71c0,.23,0,.34,0,.57l1.12,0v-.56ZM153,23.37V24.5h1.11c.65,0,1-.38,1.12-1.14Zm16.93,104.54q-.55-3.78-.95-13.75c.37,0,.56-.35.56-1q-1,0-2.19-20.75c0-2.71,0-4.06,0-6.76,0-1.22-.37-1.87-1.11-1.94.23-2.83.34-4.24.57-7.06-.45-1.17-.67-1.76-1.11-2.93.22-.8.33-1.19.56-2-1.23-11.24-2.4-22.46-2.73-33.78.37,0,.56-.29.56-.85-.37,0-.74-2.29-1.1-6.9a3.22,3.22,0,0,1,1.67-1c-.93-2.72-1.66-4.08-2.22-4.07a13.43,13.43,0,0,1-1.68,6.09v1a3.18,3.18,0,0,1,1.67,1,30.64,30.64,0,0,0-1.68,7.93l.55,2q-.57,8.34-.58,14v2l-1.12,2.85v5.94q-1.15,19-2.27,24l.56,0Q156,114,155,117.73l.56,0q-.72,8.81-1.13,10.94ZM166.23,68.2v1.27l.56,0V68.19Zm2.28-35.82v1.69h1.11V32.37Zm1.69-10.29v.56h1.11v-.56Zm.55,4.08h-.56v.56a4.3,4.3,0,0,1,1.67.55h.55v-.56A4.16,4.16,0,0,1,170.75,26.17ZM172.34,71v.56l1.11,0V71Zm2.28-33.07v1.12h.55V37.92Zm.55,5.19,1.11,0V42A1,1,0,0,0,175.17,43.12Zm4.33,72.43v1.12l1.11,0V115.5ZM181.78,82v.7l1.67,0v-.7Zm1.06,30.64v1.68c0,.75.36,1.11,1.11,1.08l.55,0a5.58,5.58,0,0,1-.55-2.77Zm.55,3.34c-.22,1.13-.34,1.69-.56,2.82v.56l1.11,0c0-1.35,0-2,0-3.36Zm3.49-100.7v1.12H188V15.24Zm1.1,9.5V26h.55V24.74Zm0,2.37v.56h1.11v-.56Zm1.66,3.34c0,1.12,0,1.68,0,2.8l2.23-.59v-.55C191.3,32.12,190.56,31.57,189.64,30.46Zm0,9.65v1.11h1.11C190.73,40.56,190.36,40.19,189.62,40.11ZM189.4,181.8v1.12l1.11-.07Q190.51,181.88,189.4,181.8Zm.77-136.67V46.8h.55c.65,0,1-.39,1.12-1.14A4.13,4.13,0,0,1,190.17,45.13Zm.34,136c.23.44.34.65.56,1.09l1.11-.63-.55-1.08Zm.76-129.91v2.93l1.11,0a4.49,4.49,0,0,1,.56-1.83,1,1,0,0,1-1.11-1.09Zm.55,5.71v.56l1.11,0V57Zm0,6.15v1.11l1.11,0V63.09Zm1.66,2.75v.56l1.12,0v-.55Zm0,2.93v.56l1.11,0v-.55Zm0,1.68V71l1.11,0v-.56Zm.54,5V76.6c.56,1.1,1.11,1.65,1.67,1.63V76A4.18,4.18,0,0,1,194,75.49Zm.56-2.25v1.12l.56,0V73.23Zm0,6.14v1.11l1.11,0c0-.44,0-.67,0-1.11Zm-.15,100.44v1.12l.55,0v-1.11Zm0,6.7v1.11c.64,0,1-.43,1.11-1.18Zm.71-100.88V89l1.11-.59-.55-2.78Zm-.14,89v.56l1.11-.07v-.56Z"/><path class="cls-1" d="M218.81,40v1.11h-1.12A1,1,0,0,1,218.81,40Zm-.71,6.1A1,1,0,0,1,219.22,45a4.13,4.13,0,0,0,.55,1.65v.55l-1.67,0Zm1.18,49.81a1,1,0,0,1,1.11-1.14v1.66Zm.64-53.71H221v1.1l-1.12,0Zm.7-5.54c.22-.45.33-.67.56-1.12l1.11.55c0,.64-.37,1-1.12,1.11h-.55Zm55.75-9.8c0-8.57,0-12.85,0-21.41l47.11,0c0,8.49,0,12.74,0,21.23l-5,0a.13.13,0,0,1,.14.14c.06.38.08.57.14.94-1.12,1.18-1.67,2.09-1.67,2.72,0,.27.23,1.62.69,4.06a1,1,0,0,0-1.11,1.09,3.55,3.55,0,0,1,.69,1.62.49.49,0,0,0-.56.54c.74,0,1.11.31,1.11.94l-2.08,2.18q2.78,0,3.05,9.86c.74,0,1.11-.55,1.11-1.63h1.11c-1.76,3.08-2.65,5.52-2.65,7.33H319a7.72,7.72,0,0,1-1.54,4.75l.7,2.57c0,.72-.19,1.08-.56,1.09.28,2.11.41,3.16.69,5.27.11,2.06.16,3.08.27,5.14a.49.49,0,0,1-.55.55l.55,1.07q-.29,14.63-1.82,14.65a6,6,0,0,1,.69,1.48,4.07,4.07,0,0,0-.55,1.63c.46,0,1.06,1,1.8,3.08-.75,4.89-1.26,7.33-1.54,7.34.47,1,.88,1.47,1.26,1.47a15.52,15.52,0,0,1-2.1,6.39l1.12,0a20.18,20.18,0,0,0,.69,5.13c-.23,6.88-.35,10.33-.58,17.21l1.25,2.14-1.11,0c.11,3.52.16,5.27.27,8.79a.49.49,0,0,1-.56.55c0,.37.19.54.56.53q-.29,9.63-.15,14.08c.16,3.79.24,5.68.41,9.47l5.14-.13c0,8.49,0,12.74,0,21.23q-23.59.65-47.18,1.64c0-8.57,0-12.85,0-21.41l8.49-.31a9.56,9.56,0,0,0-2.78-3.17l1-2.08q-2.49-10.12-2.49-11.5h.55a4.38,4.38,0,0,1,2.23.47l.56,0V155l-1.12,0c-.05-.43-.08-.65-.13-1.08l1.11,0v-.41l-2.23.07v1l-.55,0c-.75-.07-1.12-.38-1.12-.92V152l1.11,0v-.55l-1.11,0a.51.51,0,0,1-.56.56l-.55-1.07c-.1-.63.23-1,1-1-1.48-2.13-2.27-3.7-2.36-4.69a4.27,4.27,0,0,0,.56-1.66c-.83,0-1.62-.63-2.36-2l.56-1.11q-1.54,0-3.19-13.55l2.23-1.7-.55-.94c-.06-.65-.09-1-.14-1.63.22-.45.33-.67.56-1.11l-2.78.07-1.12.58a3.89,3.89,0,0,0-.55-2,5.27,5.27,0,0,0,.42-1.65c-.65,0-1.44-1.51-2.36-4.59l-1.67,0c.22-.45.34-.67.56-1.11l-1.81-2c-.05-1.92-.08-2.87-.13-4.79q0-1.5-1.8-5.83h-.56l-1.11.57c.22.44.33.65.56,1.08l.13.55c-.18.73-.55,1.11-1.11,1.12l.55,2.59v.54c-.16.39-.25.58-.42,1l1.12.52c-.4,2.58-.59,3.87-1,6.46.74,0,1.12.29,1.11.93-.27,1.1-.6,1.65-1,1.66l.55,1c-.09.73-.46,1.1-1.11,1.12.83,2.63,1.25,4,1.25,4.21l-1.12.58-1.11-.52c-.17,1-.25,1.57-.42,2.62.56,0,1.11.51,1.67,1.59v.55c-1.86,0-2.92.59-3.2,1.6,0,.22,0,.33,0,.55l.56,0,2.09-1.57c.28.38.42.56.69.94q-1.11.16-4.31,4.38v1.1l2.35,4.16v.55q-1.11,0-1.11.45,1,2.16,1.8,2.13c.17-.45.26-.67.42-1.11,0-.6,0-.91,0-1.51a.48.48,0,0,0-.56-.53,4.27,4.27,0,0,0,.56-1.66l1.11,0v3.14a.51.51,0,0,1-.56.57c.46.62.92,2.39,1.38,5.29-.17,2.08-.25,3.13-.42,5.21.55,5.18,1,8.68,1.38,10.48l-.56,0c0,.36.18.54.56.52-.12,2.52-.18,3.78-.29,6.3.05,1.32.08,2,.13,3.28l5.71-.22c0,8.57,0,12.86,0,21.44q-24.07,1-48.13,2.45c0-8.68,0-13,0-21.72l7.37-.37a4.53,4.53,0,0,1-.13-1.1V172l1.11-1.57a5.68,5.68,0,0,1-1.24-3.26l-.14-3.72c0-.27.19-.42.56-.44l-.55-1.07c-.06-1.71-.08-2.57-.14-4.28a4.41,4.41,0,0,0-.69-2l1.12-2.26a2.8,2.8,0,0,0-.7-1.48c.57-5,1.08-7.5,1.54-7.52,0-.37-.18-.55-.55-.53.17-1.5.25-2.25.42-3.75-.05-1.71-.08-2.56-.13-4.27a3,3,0,0,0-.69-2,4.58,4.58,0,0,0,.56-1.68l-.7-2.6c.23-1.11.34-1.67.56-2.78l-.55-.94a7.05,7.05,0,0,0,1-3.21c-.06-1.33-.08-2-.14-3.31a4,4,0,0,0-.55-2c-.05-.61-.08-.91-.14-1.52l-1.11,0v-.55l1.67-.06v-.55c0-.37-.18-.55-.55-.53l.55-1.13c0-.6-.08-.9-.13-1.51a4.25,4.25,0,0,0-.56-2.19c.23-.39.34-.59.56-1a3.6,3.6,0,0,1-.69-1.64.51.51,0,0,0,.56-.57l-5,.15a1,1,0,0,1,1.12-1.14l2.78-.08,1.11.52v-.55c-.28-1.26-.42-1.9-.69-3.16.74-.11,1.11-.44,1.11-1a.47.47,0,0,0-.55-.53c.67-6.87,1-10.3,1.69-17.16-.28-1.26-.41-1.89-.69-3.16V76.73a3.06,3.06,0,0,1,.42-2.08,6.09,6.09,0,0,1-.69-2.74,12.28,12.28,0,0,1,1-4.72L229.75,64v-.55a3.59,3.59,0,0,1,.42-2.22,3.29,3.29,0,0,1-.55-1.5l.42-1.12c-.45-.82-.67-1.23-1.11-2,.28-1.47.65-2.22,1.11-2.22a.63.63,0,0,0-.69-.54c.22-1.5.34-2.25.56-3.74-.11-2.54-.16-3.81-.27-6.34l1.12-1.53c-.75-.09-1.11-.45-1.11-1.1-.06-.44-.09-.66-.14-1.1a.5.5,0,0,1,.56-.56c-.23-.38-.34-.57-.56-1q.3-9.37.16-11.18a.39.39,0,0,0,.28-.14l-8.48.07c0-8.69,0-13,0-21.72l48.08-.07c0,8.58,0,12.87,0,21.45l-5.7,0c.18,1.27.32,2.69.41,4.23a.5.5,0,0,0-.56.56c.74,0,2.4,5.82,5,17.45l-1,2.6q2.77,0,4.29,11.56a5.38,5.38,0,0,1-1.67.43v.55A1.44,1.44,0,0,1,272,65.94a9.32,9.32,0,0,1-1,3.16l2.22,0a4.08,4.08,0,0,0,.56,1.63l-1,2.07c1.12,0,1.67.33,1.67,1.06l-.56,1-1.11-.4h-.56v1q4.59,1.69,4.72,5.79,1.93,10.59,3.6,11.38a.49.49,0,0,0-.55.56h.55c.09.36,0,.54-.41.55q.68,6.8,2.91,6.75c0-.63.74-1,2.22-1A9.28,9.28,0,0,1,283,93.57c.74,0,1.25-1.43,1.53-4.25-.74-.07-1.16-.38-1.25-.93V86.21c0-.63.37-1,1.12-1a19,19,0,0,1-1.94-5.82,43.79,43.79,0,0,0,.84-9.41l-.13-7.36c.17-.43.25-.65.42-1.09-.74-.08-1.1-.45-1.11-1.08,0-2.4.24-3.68,1-3.69l-.56-.94V55.3a.49.49,0,0,1,.56-.55l-1.25-3.12c0-.54.89-1.6,2.65-3.16h-.56l-1.11.55a3.52,3.52,0,0,0-1.67-.52V48a.49.49,0,0,1,.56-.55l-.55-1.08c-.1-1.73.23-2.6,1-2.6l-.55-1.09v-1c-.09-1.82,1.16-3,3.76-3.71h1.11l1.66.94H289l-.55-.95v-.54a5.8,5.8,0,0,0,2.78-.57l-.7-1.08V34.68c.23-.38.34-.57.56-1-1.11,0-1.67-.36-1.67-1.08h-1.11c0,1.73-.37,2.59-1.11,2.6a1,1,0,0,0-1.11-1,9.73,9.73,0,0,1-3.34,1c-.22-.38-.33-.57-.56-1,0-.44,0-.65,0-1.09s.51-1.09,1.53-1.64c.09.54.88,1.26,2.36,2.16-.06-.87-.08-1.31-.14-2.18h.56V31c-.45-.59-.67-.89-1.11-1.49a4.09,4.09,0,0,0,.56-2L284.71,27h-.56c.05.82.08,1.23.14,2l-2.23,0v-.55l.42-1.63Zm-55,74.53.55,0v1.11h-.56Zm.78-60.88V40h.56l1.11.54c-.22.45-.33.67-.56,1.12C222.6,41.62,222.23,41.26,222.14,40.52Zm5.41,6.57A1,1,0,0,0,226.44,46v1.1Zm.33,59.08A1,1,0,0,0,229,105v-1.66l-1-1.63v-.55c.22-.45.33-.67.56-1.12l-1.12-.52-.55,0a4.41,4.41,0,0,1-.56,1.67l1.11.52a3.71,3.71,0,0,1-.7,1.68,4.16,4.16,0,0,0,.56,1.64c-.23.45-.34.67-.56,1.12Zm-.74-64.05c0-.44,0-.66,0-1.1h-.56v1.11Zm.54,15.46-1.12,0v1.1A1,1,0,0,0,227.68,57.58Zm0,19.88a3.75,3.75,0,0,1,.69-2.22l-.55-2.75h-.55a4.31,4.31,0,0,1-.56,1.67.47.47,0,0,1,.55.54l-.14,1.11-.55,1.11Zm0,21h.55a4.13,4.13,0,0,0-.55-1.65c.22-.44.33-.67.56-1.12-1.12.59-1.67,1.15-1.68,1.71S226.87,98.38,227.62,98.45Zm.2-44.19v-.55l-1.11,0v.55Zm0,36.45c.09-1.84.51-2.77,1.25-2.79a.47.47,0,0,0-.55-.54.5.5,0,0,1,.55-.56c-.44-.65-.66-1-1.11-1.63a1.17,1.17,0,0,1,1.26-1.14c-.45-.65-.67-1-1.11-1.63-.65,0-1,.4-1.12,1.14-.11,2.87-.17,4.31-.29,7.18Zm0,2.77v-.56a1,1,0,0,0-1.11-1.07v1.66Zm0-21.54.15-2.77h-.56a4.31,4.31,0,0,1-.56,1.67C226.73,71.5,227.05,71.86,227.79,71.94Zm.36,41.41a5.78,5.78,0,0,1,.7-2.24c-.65,0-1-1.25-1-3.83l-1.11.59a13.07,13.07,0,0,0,1,4.38l-.55,0C227.08,112.92,227.41,113.28,228.15,113.35Zm-.77-45.82c.1-2.12.33-3.41.7-3.88L227,63.11c-.06,1.77-.08,2.66-.14,4.43Zm.85-6.09v-.56l-1.11,0c0,.22,0,.33,0,.56Zm.53,17.1V78l-1.67,0v.55Zm.61,51.88c-.38-2.86-.57-4.29-1-7.14a.52.52,0,0,0,.56-.58l-.56,0-1.11.59a47.42,47.42,0,0,1,1,7.7Zm-.76-49.11v-.56l-1.11,0v.55Zm.5,39.73a4.07,4.07,0,0,1-.55-1.63l-1.11,0v1.66Zm1.09,16.52c-.93-2.17-1.62-3.25-2.08-3.23l-.7,2.79.55,2.74C228.9,138.35,229.64,137.58,230.2,137.56Zm-1-3.82v-1.66l-.55,0c-.56,0-.93.4-1.12,1.15v.55Zm.06,52.43v-.55l-1.11.06v.55Zm4.21-27.78v-.56c0-.73-.37-1.08-1.12-1.05l-1.66.07a3.91,3.91,0,0,1-.7,2.24C232.07,158.63,233.23,158.4,233.5,158.39ZM231.59,41l-1.11,0v1.1A1,1,0,0,0,231.59,41Zm0,106.48c0-.44,0-.66,0-1.11l-.56,0v1.1Zm5.15-95,.14-.56-4.45.07-.14.55Zm-2.43,43v-1.1a3.62,3.62,0,0,1-1.67.59v.55Zm-.91-40.23v-1.1h-.56v1.1Zm.53,16c.09-.74-.23-1.1-1-1.08l-.14,1.1Zm.17-20.4v-.55H233v.56Zm.65,31.41v-.55l-1.67,0v1.1A4.5,4.5,0,0,1,234.73,82.27Zm4.79-47.45.14-1.1h1.12l1,.54.7-1.11c-1.12,0-1.67-.35-1.67-1.08a4.33,4.33,0,0,0-2.23.57l-1.66-1.09h-1.11v.55l-2.23,0v.55c.56,0,1.25.54,2.08,1.64h.56c.06-.44.08-.66.14-1.1l1.67,0v.55l-.7,1.11Zm-1.25,3.87.14-.56a3.53,3.53,0,0,1-2.22-1.07h-.56a1.64,1.64,0,0,1-1.81,1.67l.55,1.1Zm-3,27v-.55l-1.11,0v.55Zm.82,6q.56,0,1.26-1.68l-2.78.61-.14.55A3.49,3.49,0,0,1,236.13,71.77Zm.58-16.54v-.55l-1.67,0v.56Zm-.12-12.12h-1.11l-.14,1.11A1.14,1.14,0,0,0,236.59,43.11Zm-.75,40.24V82.24l-.56,0v1.1ZM237,27.13v-.55h-1.11v.55Zm.51,35.25a5.35,5.35,0,0,1,1.25-2.78l-2.78,0c.17,1.1.25,1.65.42,2.75Zm.05-33.05a1,1,0,0,0-1.11-1.09v1.1Zm-.05,34.15v-.55l-1.11,0c0,.22,0,.33,0,.55Zm0-19.83c.05-.44.08-.66.14-1.1h-.56c-.06.45-.08.67-.14,1.11Zm.2,48.46V91l-.55,0v1.1Zm3.07-7.78c0-1.32,0-2,0-3.3h-.56l-2.78.62v.55l1.67,0v1.1l-1.12,0v1.1Zm-2,9.41v-.55l-1.11,0v.55Zm1.49-64.43a.49.49,0,0,0-.56-.55c.45-.66.67-1,1.11-1.66l-2.77-.53v.55a4.07,4.07,0,0,1,1.1,2.2Zm-1.14,16.52v-.55l-1.11,0v.55Zm.36,40.73V86l-1.11,0v.55Zm2.74-69.37v-1.1A3.51,3.51,0,0,1,240.25,15h-1.11L239,16.66ZM240.2,49.12v-.55l-1.11,0v.55Zm2.07,6.58-2.78.59-.14,1.1C241.3,57.09,242.27,56.52,242.27,55.7Zm-.72,21.46,1.25-2.77a.47.47,0,0,1-.55-.54l-1.12.57a.48.48,0,0,0,.56.54c-.09.74-.7,1.12-1.81,1.14v.55A4.36,4.36,0,0,1,241.55,77.16Zm.5,38a1,1,0,0,0-1.11-1.07l-.56,0v1.1Zm.55-90.22a5.15,5.15,0,0,1-.42-1.65h-1.11a2.58,2.58,0,0,1,.41,1.65Zm2.31,35.17v-.55c-1.11,0-1.67-.34-1.67-1.08A4.2,4.2,0,0,1,241,59.57v.55Zm-2.35-13.72a4.13,4.13,0,0,1,2.23-1.12v-.55c-1.11,0-1.62-.54-1.53-1.64l-1.11,0c-.09.36-.55,1-.69,1.66A1.27,1.27,0,0,0,242.56,46.34Zm5.32-27c0-.44,0-.66,0-1.1h.55l1.11.55c0-1.1.75-1.66,2.23-1.66V15.5h-1.11c-.56,0-.93.37-1.11,1.1l-1.11-.55.69-1.1H248c-.06.66-.08,1-.14,1.65h-1.11v-1.1l.69-1.1a16.7,16.7,0,0,1-3.89-.53,4.21,4.21,0,0,1-1.66.55V15c1.85,0,2.73.36,2.63,1.09,1.48,1.46,2.22,2.56,2.22,3.29Zm-5.46,30.83v-1.1h-.55c0,.44,0,.66,0,1.1Zm1.38,7.68v-.55l-1.67,0v.55Zm.53,18.69V76l-1.11,0v.55Zm.19-38.49v-.55h-1.11v.55Zm0,66v-.55l-1.11,0v.55Zm1-79.72,1,.54h1.11l-1-1.64-1.11.55H245l-1.11-.55c-.06.66-.09,1-.14,1.65A4.42,4.42,0,0,0,245.52,24.32Zm-.15,3.3v-.55h-1.11v.55Zm-.22,58.82a1,1,0,0,0,1.11-1.13h-.55c-.56,0-.93.39-1.12,1.13Zm1.35,27.44v-1.1l-.55,0-1.12.58a4.13,4.13,0,0,1,.56,1.63A1,1,0,0,0,246.5,113.88Zm.05-37.37V76l-1.11,0v.55Zm2.54-25.3V49.56c-.55-1.09-1.11-1.64-1.66-1.63l-1.67,1.12C245.76,49.79,246.87,50.5,249.09,51.21Zm-.68,89a4.07,4.07,0,0,1-1.67-.49c0,.37-.37.57-1.11.59.44.65.66,1,1.11,1.61C247.85,141.3,248.41,140.73,248.41,140.18ZM247,27.61v-.55h-1.11v.55Zm1.09,17.57v-.55A1,1,0,0,0,247,43.54h-1.11C245.9,44.1,246.64,44.64,248.13,45.18Zm1,92.23v-.55l-3.34.67c.45.64.67,1,1.11,1.61C248.36,138.54,249.11,138,249.11,137.41Zm-2-98.82-1.11,0v1.1A1,1,0,0,0,247.16,38.59Zm1.4-5v-.55l-2.22,0v.55Zm-1,31.87V65l-1.11,0v.55Zm.72,82.37,2.78-.66v-.55l-2.78-.44-1.11.59C247.15,147.46,247.52,147.81,248.26,147.88ZM248,30.35l.14-1.1h-.56c-.05.44-.08.66-.14,1.1Zm1.06,36.78a3.62,3.62,0,0,1,.7-1.66l-1.67,0a10,10,0,0,1-.7,1.66Zm-.56,1.66v-.55l-1.11,0v.55Zm.12,13.72V82l-1.11,0v.55Zm1.31-43.39a5.43,5.43,0,0,1-.41-2.2l-1.67,0,.55,1.09c-.27.45-.41.67-.69,1.11Zm-1.55,17v-1.1h-.56v1.1Zm.94,23.59V79.2l-1.11,0v.55Zm2.12,72.4.56,0v-.54c-.83-1.43-1.58-2.14-2.22-2.11l-1.67.06v.55Q248.12,150.77,251.45,152.15ZM249,35.83v-1.1h-.56v1.1ZM250,73.7v-.55a4,4,0,0,1-1.66-.52v1.1Zm.6,69.15a.94.94,0,0,0-1.11-1.06q-1,0-1.11,1.14v.55Zm-2.16,50.6,2.23-.11v1.1l-2.23.11ZM250,72.05h.56a2.54,2.54,0,0,1-.41-1.64l-1.26.58C248.92,71.62,249.29,72,250,72.05Zm-.08,57.1v-.55l-1.12,0v.54Zm.35-47.77v-.55l-1.11,0v.55Zm.22-59.83V21h-1.11v.55ZM250.37,133l1.11,0a.94.94,0,0,0-1.11-1.06l-1.11,0C249.25,132.56,249.62,132.91,250.37,133Zm0,19.76v-.55l-1.11,0v.55Zm.15-7.69v-.55l-1.11,0v.55Zm.44-120.21c.06-.22.09-.33.14-.55H250l-.14.55Zm-.36,64.77c.05-.44.08-.66.14-1.1h-.56c-.06.44-.08.66-.14,1.1Zm.69-2.21v-.55l-1.12,0v.55Zm.22-58.18V28.13h-1.12C250.37,28.77,250.74,29.14,251.48,29.22ZM252,62.14a8.57,8.57,0,0,1-.41-3.28H251l-.7,2.76v.55Zm-.66,74.65c0-.74-.37-1.09-1.11-1.06v1.64Zm.3-113.6v-.55h-1.11v.55Zm-.43,12.07v-1.1h-.56v1.1Zm1,56.51v-.55l-1.67,0v.54Zm3.63-10,1.11,0,1.11.53v-1.1h-.55l-2.78.61v-1.1a3.62,3.62,0,0,0,1.67-.58,2.64,2.64,0,0,0-.42-1.64c0-.36.37-.55,1.12-.57a.48.48,0,0,0-.56-.53,4.27,4.27,0,0,1,.56-1.66c-.56-1.08-1.06-1.62-1.53-1.61l-1.25,2.76h-.56l-1.67-1.06v.55c0,.82.93,1.35,2.78,1.59v1.09l-3.89.63c-.1.64.23,1,1,1.08-.22.44-.34.66-.56,1.11,1.11,0,1.67.33,1.67,1.06C254.93,82.93,255.86,82.55,255.86,81.82Zm-.48-52.63V28.1h-.56V25.91h-.55l-2.78.57V27q2.22,0,2.22,1.08c-.22.44-.33.66-.56,1.1Zm-.55-3.83a4.09,4.09,0,0,1,2.36-1.11.48.48,0,0,0-.56-.54c.23-.44.34-.66.56-1.1v-.55h-1.11v-.54h1.67V21l-.42-1.1-1.25.56-1-.54a.66.66,0,0,1-.69.55h-.56l.14-1.1c.56,0,1.3-.55,2.23-1.65h.55v1.09h.56V17.12c-.45-.65-.67-1-1.11-1.63l.7-1.1-1.67-1.09h-.56v.55c.22.43.34.65.56,1.09l-1.25.55c-.62-.43-.92-.65-1.53-1.09V15c.16,1.32.24,2,.41,3.29-.22.44-.33.66-.56,1.1h.56a1.26,1.26,0,0,1-1.25,1.1l.55,1.1-.14,3.29ZM252.47,117l.15-2.2-1.12,0c.17.87.25,1.31.42,2.18Zm1.05-50.49c0-.22.08-.33.14-.56L252,66l-.14.55Zm-.56,2.2v-.55l-1.11,0v.55Zm0,17.55v-.54l-1.11,0v.55Zm5.35-45.58V38.49c-.16-.44-.25-.66-.41-1.09l-1.12.55h-.55l-2.78-.52c.17.43.25.65.41,1.09l-1.66,0v1.09a6.81,6.81,0,0,1,3.33.52v-.55A6,6,0,0,1,258.28,40.68Zm-3.89.59v-.55l-2.23,0v1.1A4.43,4.43,0,0,1,254.39,41.27Zm-1.16,34,.14-.55-1.11,0-.14.55ZM254,55.53l1.11,0c-.16-1.53-.25-2.29-.41-3.83h-.56c-.09,1.46-.69,2.2-1.81,2.22C252.84,55,253.39,55.54,254,55.53Zm.51,35.64,1.11,0v-.55a4.26,4.26,0,0,1-2.22-.5l-.56,0v.55A4.23,4.23,0,0,1,254.46,91.17Zm.38,23v-1.65a4.38,4.38,0,0,1-1.67.6v.54A4.18,4.18,0,0,1,254.84,114.19Zm-.63,53.75v-.54l-1.11,0V168Zm.51-69.65a10,10,0,0,1,.7-1.66v-.55c-.55,0-1.16.76-1.81,2.24Zm-.6,38.4v-1.1l-.56,0v1.1Zm.55,2.17v-.54l-1.11,0v.55Zm-.31-80.05V57.72h-.55v1.09Zm.48,57v-.55l-1.11,0v.55ZM256,94.42c.73-1.33,1.09-2,1.81-3.33l-3.34,1.72-.14,1.1A3.49,3.49,0,0,1,256,94.42Zm0,40v-.55l-1.67.05v.55Zm-.22-47.14a1,1,0,0,0-1.11-1.07v1.09Zm-1.2,69.12c0,.87,0,1.31,0,2.19l1.67-.07L259,159v-1.1c-1.11,0-1.66-.3-1.66-1l-1.12.59Zm1.4-109.69h.55v-1.1l-1.67,0Q254.8,46.61,255.91,46.73Zm1,114.53c0,1.09-.74,1.67-2.22,1.73v.55c1.86-.08,2.83.43,2.92,1.53l1.12,0v-.55a.64.64,0,0,0-.7-.52c.23-.44.34-.67.56-1.11C258.53,162.29,258,161.76,256.86,161.26Zm-2-84.36,1.12,0V78l-1.11,0Zm1,94.26v-.55l-1.12,0v.55Zm.29-12.07.56,0v-.55c.09-.73-.23-1.08-1-1.06l-.56,0c-.06.22-.08.33-.14.55Q255.06,159,256.17,159.09ZM257,65.9v-.55a1,1,0,0,0-1.11-1.08h-.55v1.1A4.21,4.21,0,0,1,257,65.9Zm-1.84,127.22,1.67-.08v1.1l-1.67.08Zm2.28-36.27v-1.09l-1.67.06v.55A4.22,4.22,0,0,1,257.43,156.85Zm-.17-84.93v-.54l-1.11,0v.54Zm-.05,37.27v-.55l-1.11,0v.55Zm-.07,54.8v-.55a.93.93,0,0,0-1.11-1.05V164Zm.92-65.78c.06-.66.09-1,.14-1.65l-1.67,0v1.1A3.37,3.37,0,0,1,258.06,98.21Zm-.9,48.79v-1.1l-.55,0c0,.44,0,.66,0,1.1Zm.49-52.62a5.26,5.26,0,0,1-.42,1.66c.45.2.67.31,1.11.52.17-.88.25-1.32.42-2.2Zm.65-70.68V22.6h-.55v1.1Zm-.22,162.71.14,1.09.56,0c-.06-.43-.09-.65-.14-1.08ZM259,59.84v.55l1.67,0v-.55ZM259.46,96v.55c.74,1.63,1.48,2.52,2.23,2.69l.55,0A8.12,8.12,0,0,1,261.12,96Zm3.2-3.35v.54c1.11,0,1.66.33,1.66,1.06q0,.83-1.53,1.68l.56,1.08c-.23.44-.34.66-.56,1.11l.56,0a4.5,4.5,0,0,1,2.22-.59q0,2.19,1.11,2.16-.84,4.39-4.32,4.48l-1.11-1.62a.5.5,0,0,0,.56-.56l-2.22.06c0,1.09,0,1.64,0,2.73.56,0,3.15-.26,7.79-.73,0,.36.18.54.56.53v-1.09l.55,0a.48.48,0,0,1,.56.54c1.85-.5,2.78-1.07,2.78-1.71-1.11,0-1.67-.32-1.67-1.05a.51.51,0,0,0,.56-.56c-1.48,0-2.32-.54-2.36-1.59,0-.34-.56-.53-1.67-.51,0-.54.56-1.1,1.67-1.67a4.24,4.24,0,0,1,1.11,2.71l1.11,0q.44-5.48,1.54-5.49c.45.2.67.31,1.11.52V93.5h-.55c-2.23,0-3.3.8-3.2,2.25l-1.81-1.05-1.11,0-1.12.57-.55-1.08A1,1,0,0,0,266,93.1c-1.11-.34-1.66-.69-1.66-1.06A4.37,4.37,0,0,1,262.66,92.63Zm-2.79,1.7v1.1A1,1,0,0,0,261,94.31Zm.32-28.48v.55l1.67,0c.22-.44.33-.66.56-1.1h-.56A4.55,4.55,0,0,1,260.19,65.85Zm1.38,10.93-1,1.66h.56a4.56,4.56,0,0,1,2.78-1.15l-.14-.54Zm-.29,7.12v.55l2.22,0L263,83.32A4.49,4.49,0,0,1,261.28,83.9Zm.32-29v.55a1,1,0,0,0,1.11-1.11c-.06-.22-.08-.33-.14-.55C261.83,53.87,261.5,54.24,261.6,54.88Zm.68,6.56c0,.73-.19,1.1-.56,1.1a3.55,3.55,0,0,1,.7,1.63H263c-.05-1.09-.08-1.64-.13-2.73Zm-.18,32.84v1.1a1,1,0,0,0,1.11-1.12Zm1.41,88.06c.06.43.08.65.14,1.09l-1.11,0C262.63,182.74,263,182.36,263.51,182.34Zm-.7-102.85v2.19l1.11,0v-.55a4.07,4.07,0,0,1-.55-1.63Zm1-5.49v.55l1.12,0V74Zm.51,38.29c0,.73-.19,1.09-.56,1.1A5.36,5.36,0,0,1,265,116.1c.56,0,1.11-.76,1.67-2.24Zm1.8,3.78c0,.73-.19,1.09-.55,1.1a6.75,6.75,0,0,1,.69,2.72l.55,0c.17-1.09.26-1.64.42-2.74V116Zm.22,46.47.56,0c0,.43,0,.65,0,1.09l-.55,0Zm.23-71.09V92l1.11,0v-.54Zm.24,31.16c0,1.75.08,2.62.13,4.37l.56,0q0-3.83.42-4.38Zm.16-13.67.13.54,1.67,0-.13-.55Zm2.23-3.34v.55l1.12,0v.55c0,1.46-1,4-3.07,7.73a4,4,0,0,1,2.22,1c1.86-.5,2.78-1.07,2.78-1.71L271,112.11c.62-1.32.93-2,1.54-3.31a4.18,4.18,0,0,1-1.67-.51c0-1.09.74-1.65,2.23-1.69v-1.09l-2.23,0,.42-1.1v-.55C269.87,104.49,269.18,105.06,269.18,105.6Zm-.8-27.85v.54l1.11,0v-.54Zm.26,12.56.14.55,1.67,0-.14-.54Zm1.4-8.77,1.11,0c.06.88.09,1.31.14,2.18a4.36,4.36,0,0,0-1.67-.51A2.67,2.67,0,0,0,270,81.54Zm-.2,48.63v1.64l.55,0c0-.65,0-1,0-1.63Zm.33-44.26c.06.22.09.33.14.54l1.12,0c-.06-.21-.09-.32-.14-.54Zm.16-13.66,1.67,0,.14,1.09-1.67,0Zm1.89,44.2a2.66,2.66,0,0,1-1.53,2.77c.46,1.81,1,2.71,1.66,2.69,2.23-.88,3.34-1.64,3.34-2.27l-1.11-.52-1.11.57v-.54c-.09-.73.42-1.1,1.53-1.13v-.55a3.93,3.93,0,0,1-2.22-1Zm-1.4,9.87v.55l2.22-.07v-.54Zm1.25,2.7v1.09l.56,0V129Zm2.35,4.29c0,1.1-.74,1.66-2.22,1.71v.54a2.12,2.12,0,0,1,2.36,2.12.51.51,0,0,0-.56.56l2.23-.07v-.54l-1.12,0v-.55l1-1.66a4.19,4.19,0,0,1-.55-2.17Zm-1,6.58a5.15,5.15,0,0,1-.42,1.65l1.67,0c-.28-.42-.41-.64-.69-1.07a.51.51,0,0,0,.56-.56ZM273.2,111v1.09l1.11,0v-1.09Zm.16-12v.55l1.12,0v-.54Zm3.58,23.93c0,1.82-1.11,2.75-3.34,2.82v.54l1.67,0v.54l-.42,1.1,1.11.52a3.66,3.66,0,0,1,1.67-.59l-.69-1.07,1.67-3.32A3.58,3.58,0,0,1,276.94,122.88ZM275,21.42c.09.73.7,1.09,1.81,1.08v1.1L274,23.06v-.54C274.1,21.79,274.43,21.42,275,21.42Zm-1,101c.06.43.08.65.14,1.09l.56,0c-.06-.43-.09-.65-.14-1.09Zm.16-16.38v.55l1.11,0V106Zm.22,44.2v1.64c.09.73.46,1.08,1.11,1.06l.56,0-1.11-1.6c.22-.45.33-.67.56-1.11Zm.14,4.91v.55l1.11,0v-.55Zm4.64-47.59a5.13,5.13,0,0,1-.41,1.65.47.47,0,0,1,.55.53q-4.45.1-4.32,5l1.67,1.05,2.23-.05v-.55l-1.12,0v-1.09l1.11,0a1.09,1.09,0,0,0-1.25-1.06,3.79,3.79,0,0,1-2.09.6c-.09-.82.79-1.39,2.65-1.7a.47.47,0,0,0,.55.53c1.4-2.76,2.09-4.41,2.09-5Zm-3.38,36.64-.56,1.11a3.42,3.42,0,0,1,.7,1.61.51.51,0,0,0-.56.56.48.48,0,0,1,.56.53c1.48-.59,2.22-1.16,2.22-1.7s-.08-1-.13-1.64A4.38,4.38,0,0,1,275.8,144.19Zm.07-54h.56c.05.43.08.65.13,1.09H276C276,90.82,275.92,90.6,275.87,90.17Zm0,18c0,.66.08,1,.13,1.64.74,0,1.07-.39,1-1.12v-.54Zm.35,50.74c.06.21.08.32.14.54l1.11,0-.14-.54Zm.16-16.92c.56,1.44,1.11,2.15,1.67,2.13v-2.18Zm0,19.09v1.64l1.12,0v-.54A.94.94,0,0,0,276.34,161.08Zm.84-8.75v.54l.56,0c2.22-.43,3.34-1,3.34-1.74V150Q278.58,152.29,277.18,152.33Zm.18-32.74,1.11,0v-1.1C277.73,118.58,277.36,119,277.36,119.59Zm0,19.09v1.1l1.11,0A1,1,0,0,0,277.34,138.68Zm.24,27.81V167l1.11,0v-.55Zm.18-31.64a8.58,8.58,0,0,1,.69,1.62l1.67-.05c-.09-.54-.69-1.07-1.8-1.58Zm.56-2.74v2.18l1.67,0c-.23-.43-.34-.65-.56-1.08v-1.09l.42-1.1h-.55C278.55,131.11,278.23,131.48,278.32,132.11Zm.29-6v.54l1.11,0v-.54Zm.13,2.72v1.09l1.11,0A.94.94,0,0,0,278.74,128.83Zm.09,42.53v.54l.55,0c.23-.88.34-1.32.56-2.2Q278.83,169.73,278.83,171.36Zm1-5.49v1.64l.55,0a4.27,4.27,0,0,1,.56-1.66Zm.2-48.52,1.25,1.6a.51.51,0,0,0-.56.56l1.11.52.56,0-.56-1.07a5.21,5.21,0,0,0,.42-1.65Zm.11,21.8v.54l1.11,0v-.54Zm0,15.81v.54l1.11,0v-.55Zm.89-42a2.69,2.69,0,0,1-.42,1.65l.55,0a4.65,4.65,0,0,1,2.23-.59,1.09,1.09,0,0,0-1.25-1.06Zm-.47,39.8v1.09l1.11,0v-1.09Zm0,17.45v1.09l.55,0v-1.09Zm.34-47.43v.54a4.1,4.1,0,0,1,.56,1.62H282v-2.18Zm0,37.06v1.09c.74,0,1.11.69,1.11,2.14l.56,0a1,1,0,0,0,1.11-1.12,4,4,0,0,1-.56-1.62l.56,0,1.11.51,1.12,0v-.55l-3.9-.42Zm.4,16.88.13,1.63.56,0-.14-1.63Zm.38-83.39v1.09h.55V93.32Zm.51,36-.42,2.74,1.11,0a4.82,4.82,0,0,1,.42-2.74Zm-.2-61.57h.55c.84.08,1.25.44,1.25,1.08l-1.11.56c-.22-.44-.33-.65-.56-1.09Zm.31,83.91c.09.73.46,1.08,1.11,1.06v-1.09Zm.22-66.48a1.2,1.2,0,0,0,1.25,1.07c.74,0,1.07-.38,1-1.11V84l-1.12,0C282.78,84.13,282.34,84.59,282.41,85.14Zm.11,22.34.56,1.07a5.27,5.27,0,0,0-.42,1.65l1.11,0a4.37,4.37,0,0,1,1-2.2,1,1,0,0,0-1.11-1.06Zm.14,3.81v1.09l1.11,0A1,1,0,0,0,282.66,111.29Zm.62-53.4c-.17,1.52-.25,2.29-.42,3.81v.55l1.11,0a20.43,20.43,0,0,1,.42-3.81ZM283,140.7l1.11,0c0-.44-.08-.65-.14-1.09C283.27,139.69,283,140.07,283,140.7Zm.35-59.39c.05.65.08,1,.14,1.63a1,1,0,0,0,1.11-1.11c-.06-.21-.08-.32-.14-.54Zm1.72,73.49c0,.73-.56,1.1-1.67,1.14v.54a16.58,16.58,0,0,1,3.89.43v.54a.51.51,0,0,1-.56.56l.7,1.07c-.23.44-.34.66-.56,1.11l.56,0a3.65,3.65,0,0,1,1.67-.6l-.7-1.07c.23-.44.34-.66.56-1.1a.48.48,0,0,1-.56-.53,1,1,0,0,0,1.12-1.12,4.81,4.81,0,0,1-3.34-1Zm-1.41-104v.54h1.12v-.54Zm0,95.87,1.11,0v-1.09C284.1,145.66,283.73,146,283.73,146.67Zm.15-13.08v.55l1.11,0v-.55Zm.18-31,1.11.52v-1.63Q284.06,101.6,284.06,102.54Zm.53,16.87,1.67,0v-1.09l-.55,0C285,118.41,284.6,118.78,284.59,119.41Zm0,37.58v.55l1.11,0V157Zm.16-15.25c0,.65,0,1,0,1.63h.56v-1.64Zm.08,43v1.09l1.12,0v-1.09Zm.74-146.51.55,1.09c-.74.1-1.07.46-1,1.1q2.07,2.16,3.89,2.14l.55-1.09c-1.85-.44-2.82-1-2.91-1.61h.55a5.41,5.41,0,0,1-.55-2.71C285.9,37.25,285.53,37.62,285.53,38.25ZM291,148.64v.54l1.11,0v-.55Zm.55-114.24v1.09h.55V34.4Zm.2,62V97l1.12,0a4.38,4.38,0,0,1,1.67-.58v-.54h-.56A4.54,4.54,0,0,1,291.71,96.4Zm.92,52.73-1,1.66.56,0a3.74,3.74,0,0,1,1.67-.59A1.09,1.09,0,0,0,292.63,149.13Zm-1,39.73v.55l1.11,0v-.55Zm.26-106.6,2.22,0a1.09,1.09,0,0,0-1.25-1.06A1,1,0,0,0,291.87,82.26Zm.6,78.29v.55l1.12,0v-.54Zm1.27-14.17a.47.47,0,0,0-.55-.53c-.23.88-.34,1.32-.56,2.19l1.67,1h.55v-.55l-1.11,0V148a1.1,1.1,0,0,1,1.12-1.12V148c1.12-.39,1.63-1.49,1.54-3.3v-1.09A15.31,15.31,0,0,0,293.74,146.38Zm-1.13,21.24.13.54,1.12,0-.14-.54Zm.21-68.52h.56a4.54,4.54,0,0,1,2.23-.58V96.33C294,97.18,293.1,98.1,292.82,99.1Zm.14,2.17a4,4,0,0,1,2.22,1v-1.09a1,1,0,0,1-1.11-1.07Q293,100.32,293,101.27Zm-.08,71.23v.55l1.11,0v-.54Zm.46-39.16v.55l1.11,0v-.54Zm0,1.09V135l1.11,0v-.55Zm.27,8.69v1.09l.55,0v-1.08Zm.17-32.62V111l2.23,0v-1.09A4.54,4.54,0,0,1,293.78,110.5Zm.74-32.63a4.29,4.29,0,0,1-.56,2.18l1.11.53a4.55,4.55,0,0,1,1.67-.57,3.86,3.86,0,0,1-1.11-2.16Zm-.34,46.75v.55l1.12,0v-.54Zm3.44,40.13-3.34.1v.54c.09.73.46,1.07,1.11,1.05.09-.72.46-1.1,1.11-1.12.09.73.47,1.08,1.12,1.06l1.11,0a.47.47,0,0,0-.56-.52l.56-1.11v-.54C298.29,164.4,298.06,164.51,297.62,164.75Zm-3.17-29.26c.06.22.08.32.14.54l1.11,0-.14-.54Zm0,33.7v1.09a1,1,0,0,0,1.12-1.12Zm1.11,1.6.56,1.07a3.6,3.6,0,0,1-1.53.59V173c.65,0,1.57.5,2.78,1.54l1.11-1.66v-.54C298.35,171.51,297.38,171,295.52,170.79Zm-.76-62.49c.06.44.08.66.14,1.09.74,0,1.06-.38,1-1.11Zm.07,58.71.14,1.08.56,0c-.06-.43-.09-.65-.14-1.08Zm.2-53.28h.56c.74,0,1.06-.38,1-1.1H296C295.26,112.73,294.94,113.1,295,113.73Zm-.08,76.1v.54l1.11,0v-.54Zm.15-14.14c.06.44.08.65.14,1.09l1.67-.06-.7-1.06,1.12,0v-.54h-.56A3.57,3.57,0,0,1,295.1,175.69Zm.58-20.12a3.79,3.79,0,0,1,1.11,2.14l.56,0c.22-.87.33-1.31.56-2.19ZM296,93.06v.55h.55c.75,0,1.12-.38,1.12-1.11V92h-.56C296.4,92.06,296,92.43,296,93.06Zm.05,76.62v.55l1.11,0v-.54Zm0,17.94v.54l2.23.47v-1.09Zm.48-57.62v1.09h.56V130Zm.29-8.7.14,1.09,1.11,0-.14-1.08Zm0,17.39v.54l1.11,0v-.55Zm.1,38.57v.55l1.11,0v-.54Zm.19-48.36v.55l1.11,0v-.54Zm.13,5.43,1.12,0v-1.09C297.6,133.33,297.23,133.7,297.23,134.33ZM303,83.72c.09,1.81-.23,2.72-1,2.73l.55,1.07c0,1.09-.93,1.65-2.78,1.68l.69,1.07h-.55a4.35,4.35,0,0,0-1.81-.51l-.42,1.09q0,1.77,4.45,2.1c0-.54.55-1.1,1.67-1.66h.55a.48.48,0,0,1,.56.53c2.23-.76,3.29-1.5,3.2-2.22v-.54h-.55l-2.65,1.66h-.56v-.54c.61-.88.91-1.32,1.53-2.19a4,4,0,0,0-2.23-1c.1-.73.47-1.1,1.12-1.11,0,.37.74,1.08,2.22,2.14l1.11-.56,1.67,1.06h.56a8.3,8.3,0,0,1,.42-3.26l-1.11-.52c.05.65.08,1,.13,1.62l-1.11,0c-.05-1.09-.08-1.63-.14-2.71ZM297.75,168v1.09l1.12,0V168Zm.48-55.42c.06.43.08.65.14,1.08.74,0,1.07-.38,1-1.1Zm.29-11.41v.54l1.11,0v-.54Zm2.21,17.33-1.11-.52c-.75.11-1.12.48-1.12,1.11l2.23,0a1,1,0,0,0,1.11-1.11l-.14-1.09C301,116.87,300.64,117.42,300.73,118.5Zm.8,30.39c.09,1.44-.23,2.17-1,2.19,0-.36-.18-.53-.55-.52a1,1,0,0,1-1.12,1.11l1.81,2.67q-1.11.16-1.11,1.11a.47.47,0,0,1,.55.53,5.57,5.57,0,0,1,2.79-.62v-.54c-.65,0-1.26-.51-1.81-1.58.22-.44.33-.66.56-1.1l-.56-1.07,2.23-.06C302.69,149.58,302.09,148.87,301.53,148.89Zm-2.35-8.63c0,.43,0,.65,0,1.09a3.66,3.66,0,0,1,1.67-.59v-.54ZM299.4,188v.55l1.67-.06V188Zm0,1.63v.55l1.11,0v-.54Zm.16-15.75q.13,1.08,1.11,1.05l.55,0c0-.72-.37-1.07-1.11-1ZM300.1,61.5h1.11V60.4C300.47,60.5,300.1,60.87,300.1,61.5Zm0,96.65.14.54,1.11,0-.14-.54Zm.14,2.17,1.11,0V159.2C300.64,159.32,300.27,159.69,300.27,160.32ZM300.63,80a9.56,9.56,0,0,1,.7,1.62c-.38,0-.56.19-.56.55h.55l1.12-.56c0,.54.55,1.07,1.66,1.6l1.12,0V82.6c-.22-.43-.34-.64-.56-1.08l1-2.18-2.23,0v1.09h-.55c-.75,0-1.12-.52-1.11-1.61C301,79,300.63,79.32,300.63,80Zm.06,77.1v.55l1.11,0V157Zm.19-51v1.09h.56V106Zm-.08,71.13v.54a6.82,6.82,0,0,1,3.34.44V177Zm.64-69.51a3.53,3.53,0,0,1,.69,2.16c.46,0,1.16-.93,2.09-2.76l-1.67,0Zm3.2-5.49c0,.73-.19,1.09-.56,1.1l-1.67,0,.14,1.62H302v.55a4.18,4.18,0,0,1,1.67.51l1.67,0v2.17a4.54,4.54,0,0,1,2.23-.58c0-.55-.56-1.08-1.67-1.6.22-.44.33-.66.56-1.1l-.14-2.16A4.42,4.42,0,0,1,304.64,102.14Zm-2.26,37.5c-.17.87-.26,1.31-.42,2.18l1.11.51c-.06-1.08-.08-1.62-.14-2.71ZM302,144l.14,1.08,1.67,0c-.05-.43-.08-.65-.14-1.08Zm.12,21.71v.54l1.11,0v-.54Zm.66-92.83c0,.65,0,1,0,1.63l1.67,0a1,1,0,0,0,1.12-1.09c-.06-.66-.09-1-.14-1.63h-.56A3.65,3.65,0,0,1,302.73,72.87Zm.07,61.33c0,.54.78,1.25,2.36,2.11.09-.72.42-1.09,1-1.1a3.66,3.66,0,0,0,1.25,2.68,5.3,5.3,0,0,0-1,3.28,4.48,4.48,0,0,1,2.22.48,5.24,5.24,0,0,1,1.54-3.28h-.56a.49.49,0,0,1-.56.55c-.66-.85-1-1.27-1.66-2.13l1.67,0-1.25-1.6a4.38,4.38,0,0,1,1.67-.58v-.54a4.31,4.31,0,0,1-1.67-.51l-2.23.59-1.11-.51A4.49,4.49,0,0,1,302.8,134.2Zm.57-17.92c-.16,1.3-.25,2-.42,3.26l1.12.52c.55,0,1.11-.57,1.67-1.66-.65-1.43-1.25-2.15-1.81-2.14Zm-.19-83v1.09h.56V33.24Zm.06,79.24c.05.65.08,1,.14,1.63l.55,0a3.69,3.69,0,0,1,2.23-1.12l-.14-.54c-.74,0-1.11-.16-1.11-.53A3.62,3.62,0,0,1,303.24,112.48Zm0,33.65v1.08h.56v-1.09Zm.66,40.68c-.23,1.09-.34,1.64-.56,2.73l1.11,0a4.08,4.08,0,0,1,1.11-2.21v-.54Zm-.06-76v.54l1.67,0v-.54Zm-.08,73.8,1.11,0v-1.09C304.09,183.64,303.72,184,303.72,184.64Zm1.84-34.23a9.3,9.3,0,0,1-1.53,4.92l.55,1.07a4.23,4.23,0,0,0-.55,1.65q2.78-1.17,2.78-3.33c1.48.14,2.23.66,2.23,1.56l2.78-.61v.54a.51.51,0,0,1-.56.56c.28,1.44.88,2.14,1.81,2.12v.54a1,1,0,0,1-1.12,1.11q0-1.08-1.11-1a.51.51,0,0,1-.56.56.47.47,0,0,0-.55-.53c.22-.44.33-.66.56-1.1l-.14-1.08-1.12,0c-.16,1.3-.25,2-.42,3.26l2.79-.07a1.06,1.06,0,0,1,1.11,1.05c0,.68-.23,1.09-1,1.11a4.35,4.35,0,0,0-1.8-.49l.13,1.62c1.12,0,1.67.32,1.67,1q-1.11.17-1.11,1.11l3.34-.08c-.23.43-.34.65-.56,1.09.05.44.08.65.14,1.08h.55a3.78,3.78,0,0,1,1.67-.59c-.05-.43-.08-.64-.13-1.08s-1.12-1.32-3.34-2.62c2.51-1.87,3.76-3.52,3.76-5l-1.11.57a1.56,1.56,0,0,0-1.81-1.58v-1.08l1.67,0-.55-1.07a1,1,0,0,0,1.11-1.11l-2.78.07v.54l1.11,0v1.08h-.56L309,154.66v-.54l-1.12.57h-.55c-.09-1.08-.51-1.61-1.25-1.59.22-.44.33-.66.56-1.1v-1.63Zm4.07-32.09c-.19,2.53-.7,3.81-1.53,3.83-.06-.44-.09-.65-.14-1.09l.56-1.09-1.12-.52q-2.64,2.89-2.64,4.94c.74.07,1.11.43,1.11,1.06,1.85-.22,2.78-.78,2.78-1.69l1.11,0v.54a4.15,4.15,0,0,0-.55,1.64h.55a7.4,7.4,0,0,0,3.34-3.32v-.54c-.83,0-1.43-.7-1.8-2.14l-1.11,0,.55-1.1v-.54Zm-4.74,9.86v1.63l2.78-.06v-.54A4.39,4.39,0,0,1,304.89,128.18Zm.17-31.47V97.8h.56V96.7Zm1.27-12.5.55,1.08.14,1.08c-.55,0-1.16-.52-1.8-1.6Zm-1-14.09v.54h1.11v-.54Zm-.12,110.13.14,1.09.56,0-.14-1.08Zm.27-123.69v1.08h1.67v-.55A4.24,4.24,0,0,1,305.52,56.56Zm0,1.62c.06.44.08.65.14,1.09h.56l-.14-1.08Zm.29,118.26.56,0c.74,0,1.07-.39,1-1.11l-.56,0C306.05,175.44,305.72,175.81,305.81,176.44Zm0-33.63v.54l1.11,0v-.54ZM306.06,75c.18.72.55,1.07,1.11,1.07a1,1,0,0,0,1.11-1.1v-.55h-.56A4.55,4.55,0,0,1,306.06,75Zm.14,2.16c.09.73.46,1.08,1.11,1.07l.56-1.09Zm.15-11.39v.54h.55a4.53,4.53,0,0,1,2.23-.57V65.2H308A4.36,4.36,0,0,1,306.35,65.77Zm0,34.72V101l1.11,0v-.54Zm5,1.54.55,1.07c-1.21,2.19-2.27,3.29-3.2,3.31l.55,1.08c-1.2,2.55-2.09,3.83-2.64,3.84a7.49,7.49,0,0,1,1.25,3.23l1.67,0c-.1-1.44.6-2.18,2.08-2.21l-1.66-2.68c1.11,0,1.67-.39,1.67-1.11l-.7-1.07q2.37,0,3.34-2.77v-.54l-1.11,0c.17-1.52.25-2.28.42-3.8H313C312.43,100.38,311.87,100.94,311.32,102Zm-4.74,6.59v.54l1.11,0v-.54ZM306.52,165v.54c0,.54.56,1.07,1.67,1.58,0-2.08.19-3.35.56-3.81l-.56,0C307.64,163.37,307.08,163.93,306.52,165Zm0,18.44,1.12,0v-1.09C306.87,182.47,306.5,182.84,306.5,183.47Zm.16-14.65v.54l1.11,0v-.54Zm.52-96.55c0,.43,0,.65,0,1.08a1,1,0,0,0,1.12-1.09Zm0,20.07c.09.72.47,1.07,1.12,1.06V92.32Zm.75,82.95c-.16,1.09-.25,1.64-.42,2.73l2.23-.07a4.21,4.21,0,0,1,.56-1.64l-1.81-1Zm-.42,5.44a3.46,3.46,0,0,1,.69,1.6h.56l1.67-1.14H311l1.67,1,1.11,0a1,1,0,0,1,1.12-1.12l-.7-1.06-1.11.57-1.12,0v-.55c0-.36.19-.54.56-.55l-.55-1.07.55-1.1h-.55Q309.29,180.67,307.48,180.73Zm1.15-38-1,2.19a4.21,4.21,0,0,1,.55,1.62c1.76-1,2.65-1.78,2.65-2.24ZM309,78.21a1,1,0,0,1-1.12,1.1v.54c.19.73.56,1.08,1.11,1.07a4.22,4.22,0,0,1,.56-2.17V78.2Zm-1.19,71.06q.13,1.08,1.11,1h.56a1,1,0,0,0-1.11-1.06Zm0,2.17q.27,1.08,1.11,1.05h.56a1,1,0,0,0-1.11-1.06Zm0,35.79v.54l1.11,0v-.55Zm1-58.59v.54l1.11,0v-.55Zm.79,44.44a4.21,4.21,0,0,1-.56,1.64l1.11,0a4.29,4.29,0,0,1,.56-1.65ZM309.26,69v.54h.56A4.52,4.52,0,0,1,312,69v-.54h-1.12A4.31,4.31,0,0,1,309.26,69Zm1.85,100.25a1.5,1.5,0,0,1-1.67,1.67,3.48,3.48,0,0,1,.69,1.61l1.12,0a3.71,3.71,0,0,1,1-2.74ZM309.84,49.47v1.08h1.67a1,1,0,0,0-1.11-1.08Zm0,2.17v.54l1.67,0v-.54Zm.46,88.89a4.28,4.28,0,0,1-.55,2.18,4.32,4.32,0,0,0,1.66.51l2.23-.06v-.54l-2.23,0c0-.43,0-.65,0-1.08l.55-1.1ZM310,54.35v.54h1.12v-.54Zm0,37.4v.54h.55a1,1,0,0,0,1.12-1.11V90.1C311.05,90.11,310.49,90.66,309.94,91.75Zm0,36.32c.74.08,1.11.43,1.11,1.06l.14,2.71a4.87,4.87,0,0,1,3.34,1c-.06-.86-.09-1.3-.14-2.16l-2.23.05v-.55a1.08,1.08,0,0,1,1.12-1.1c.18.72.55,1.07,1.11,1.06l1.11,0v-.54l-.55-1.07a4.1,4.1,0,0,0,.55-1.64l-1.11,0-1.11.56a9.21,9.21,0,0,1-.7-1.61H312C311.43,125.87,310.74,126.61,309.9,128.07Zm.13,7.05.14.54,1.11,0-.14-.54Zm0,50.95v.55l1.11,0V186ZM311.74,95a4.73,4.73,0,0,1-1.11,3.27,3.48,3.48,0,0,1,.69,1.61l1.11,0a7.23,7.23,0,0,1,1-3.81Zm-1.13,21.15v.55a1,1,0,0,0,1.11-1.11V115C311,115.13,310.61,115.5,310.61,116.13Zm0,17.89v.54l1.67,0V132.9h-.56Q310.59,133.08,310.59,134Zm0,17.35c1.86.22,2.83,1.1,2.92,2.63l1-.56c0-1.45-.75-2.15-2.23-2.12.17-1.08.25-1.63.42-2.71v-.55l-.56,0C311.55,148.09,311,149.19,310.57,151.37Zm0,1.62v.54l1.67,0V153Zm.15-14.09.14,1.08.56,0-.14-1.08Zm.18-33.07,1.11,0v1.08l-1.12,0Zm.75,80.74v.54l1.11,0v-.54Zm.85-156.09a3.44,3.44,0,0,1-.42,2.17,4.13,4.13,0,0,0,1.67.53c1.48-.55,2.22-1.09,2.22-1.63a4.14,4.14,0,0,1-2.36-1.07ZM312,85.76v1.08a1,1,0,0,0,1.11-1.1Zm.11,24.93v1.08h.56v-1.08Zm0,34.68v.54l1.11,0v-.54Zm.15-10.3c.09.54.69,1.07,1.8,1.58l1.12,0c0-.54-.61-1.07-1.81-1.59Zm.1,37.93,1.11,0v-1.09C312.73,172,312.36,172.37,312.36,173Zm.42-3.27v1.63l.55,0c0-.65,0-1,0-1.62Zm.28-140.34,1.11.54V28.31Q313.06,28.45,313.06,29.39ZM313,138.3v.55a5.29,5.29,0,0,1,.69,2.15,4.44,4.44,0,0,1,2.23-.59c-.06-.65-.08-1-.14-1.63A5.67,5.67,0,0,1,313,138.3Zm0,36.85v.54l1.12,0v-.54Zm.27-125.71q.13,1.08,1.11,1.08l.55-1.09c0-.22-.08-.33-.13-.54A3.55,3.55,0,0,1,313.18,49.44Zm.3-27.09c.22.87.33,1.3.56,2.16a3.33,3.33,0,0,0-.42,2.17h1.66a28.75,28.75,0,0,1-.82-5.42C313.71,21.36,313.39,21.72,313.48,22.35Zm-.07,75.31,1.11,0V96.56C313.78,96.66,313.41,97,313.41,97.66Zm.2,79.64v.54l1.11,0v-.55Zm.32-43.89v1.08h.55v-1.09Zm.51-93.73c.05.43.08.65.14,1.08h.55c-.05-.43-.08-.65-.14-1.08Zm.27,7V47.8h.55V46.72Zm-.14,144.09v.54l1.11,0v-.54Zm1.16-54.19v.54l1.12,0v-.55Zm1-3.27v1.08h.56v-1.08Zm.12,21.11V155l1.11,0v-.54Zm4.08-47.17h.55l.14,1.08h-.55C321,107.94,321,107.72,320.91,107.29Zm5.21,81,1.12,0v.54l-1.12,0Z"/><path class="cls-1" d="M338.92,12.82h1.67c0,.81-.37,1.21-1.11,1.22C339.26,13.55,339.15,13.31,338.92,12.82Zm89.24,90.75h.42v1.21a39,39,0,0,1,1.25,5.91l-1.11,3.23c.19,12.67.41,25.34.56,38v4.57c-.22,1.13-.33,1.69-.56,2.82.37,0,.56.59.56,1.75v1.21a1,1,0,0,1-.69.94v.94l.13.27v.67a2.16,2.16,0,0,1-.13.67v26.46c-9.36,0-14,0-23.39,0v-5.51q-4.74,3.65-8.22,2.32l-1.11.41,1.11,1.88a23.66,23.66,0,0,1-10,2.36l-6.69.06c-2.5,0-8.62-.29-12.25-2.66-4-2.6-7.79-7.29-10.57-7.24l-1.12,0v-1.21h.56l1.11.65v-.67l-2.78-3.46,1.11,0v-.4h-.55l-1.12.42q-.69,0-1.11-2.13c.22-.44.34-.66.56-1.09L353,176v-1.21l.55-1.23a3.86,3.86,0,0,0-1.67.71q-.83,0-2.78-3.46a4.5,4.5,0,0,1,.56-2.3l-1.11-2.81,1.11-1.77-1.11,0c-2,0-3.59-3.22-3.89-9.11-.85-16.4-.42-34.16-.52-51.24v-1.08h.56l-.55-8c.06-16.86-.27-34.39.59-50.58.31-5.9,1.86-9.18,3.9-9.19h1.11L348.64,33l1.11-2.7a5.22,5.22,0,0,1-.55-2.42c1.3-2.25,2.22-3.38,2.78-3.38a4.3,4.3,0,0,0,1.67.53L353.09,24V22.77h1.12c-.23-.43-.34-.65-.56-1.08.28-1.52.65-2.29,1.11-2.29l1.12.4h.55v-.4h-1.11L358.1,16v-.68L357,16h-.56V14.82h1.12c2.78,0,6.57-4.7,10.56-7.42,3.67-2.5,9.73-3,12.23-3H387a22.25,22.25,0,0,1,10,2.41L395.91,8.6,397,9q3.47-1.2,8.2,2.28V5.91h23.35V32.37a1.24,1.24,0,0,1,.14.54v.67l-.14.27v.94a1,1,0,0,1,.7.94v1.21c0,1.26-.19,1.88-.56,1.88.22,1.08.33,1.62.56,2.69v4.7a32,32,0,0,1-.56,5.11c.45,1.34.67,2,1.11,3.36a37.59,37.59,0,0,1-1.25,5.77v1.34h-.41c-.38.81-.75,1.26-1.12,1.35h-4.45a5.83,5.83,0,0,1-2.78-.54l-3.33.54h-3.34a4.5,4.5,0,0,0-2.23-.94q-2.91,0-11.12.42A6.54,6.54,0,0,1,397,57V54.69c0-1.26.18-1.88.56-1.89L397,50.12V42.59a4.18,4.18,0,0,1,.56-2.15,4.38,4.38,0,0,1-.56-2.28V32.38q0-1.88-3.33-5.64c.09-.8.46-1.21,1.11-1.21.22.91.33,1.37.56,2.29h.55q2-2.28,3.9-2.28c0,.45.18.67.55.67v-.67a.48.48,0,0,0-.55-.54l.55-1.08q0-1.2-1.11-1.2h-2.78V21c0-.62.56-1.16,1.67-1.61h1.67c.74,0,1.11.31,1.11.94H399.8v1.34h1.66c0-.89.19-1.34.56-1.34a5.14,5.14,0,0,1-1.11-2.69H399.8c-2.6,0-3.89.59-3.9,1.75h-2.78v-.54l.55-1.21a4.3,4.3,0,0,1-1.67-.53v3.22H390.9c0,.54.93,1.35,2.78,2.42,0-1.61.37-2.42,1.11-2.42.22.54.34.81.56,1.34v.54a1,1,0,0,1-1.11,1.08h-2.78c-.75,0-1.12-.76-1.12-2.28h-1.11c.22,1.61.34,2.42.56,4l-1.11.54h-.56c0-.36.18-.54.56-.54a4,4,0,0,1-.56-1.75h-1.67V25l.56,1.21q-7.51,0-8.35,11.44v7.94c0,.45-.19.67-.56.67.23.43.34.65.56,1.08,0,4.3,0,6.45,0,10.75,0,.45-.18.68-.55.68q.56.54,1.11,8.47h-.56l.56,1.07V69a42,42,0,0,1-.56,6.18.48.48,0,0,0,.55.54l-.55,4.17q0,19.31,0,38.6c.22,1.61.33,2.41.56,4-.38,0-.56.18-.56.54a43.93,43.93,0,0,1,.55,6.18v.67l-.55,1.08h.55q-.56,7.94-1.11,8.48c.37,0,.55.22.55.67V151l-.56,1.08c.37,0,.56.22.56.67v7.93q.84,11.3,8.35,11.22l-.55,1.22V175l1.67,0a5,5,0,0,1,.55-1.88.48.48,0,0,1-.55-.54h.55l1.12.53c-.23,1.61-.34,2.42-.56,4h1.11c0-1.44.37-2.16,1.12-2.16l2.78,0c.74,0,1.11.35,1.11,1.07v.54l-.55,1.21c-.75,0-1.12-.75-1.12-2.28-1.85,1-2.78,1.77-2.78,2.3H392V181a4.62,4.62,0,0,1,1.67-.55l-.55-1.2v-.54l2.78,0c0,1.17,1.3,1.74,3.9,1.73h1.11a5.12,5.12,0,0,1,1.12-2.69c-.38,0-.56-.4-.56-1.21h-1.67v1.21h1.11c0,.62-.37.94-1.11.94H398.1c-1.12-.44-1.67-1-1.67-1.6v-1.62h2.78c.74,0,1.12-.41,1.12-1.22-.23-.48-.34-.72-.56-1.2a.49.49,0,0,0,.56-.54v-.67c-.38,0-.56.22-.56.67-1.3,0-2.6-.75-3.9-2.26h-.55c-.23.92-.34,1.37-.56,2.29-.65,0-1-.4-1.12-1.2q3.35-3.66,3.35-5.53V160a4.44,4.44,0,0,1,.55-2.29,4.86,4.86,0,0,1-.55-2.28q0-18.4,0-36.82l-10.72.06c0-8.07,0-12.1,0-20.17q20.94-.07,41.87-.06Zm-82.89-27.1v2.29h1.11a5.11,5.11,0,0,1,.56-1.76l-1.11-.53Zm2.22,8.2a5.05,5.05,0,0,1-.56,1.76,6.21,6.21,0,0,0,2.78,1.06V87a4.48,4.48,0,0,1-1.11-2.29Zm0,3.38a4.1,4.1,0,0,1-.56,1.62l1.11.53c0-.36.19-.54.56-.55v1.08l1.67,0c0-.71-.56-1.07-1.67-1.06.22-.43.33-.65.56-1.08V88Zm0-7.15V82h.56V80.89Zm0,10.38v1.08h1.11V91.27Zm.56-15.91.56,1.07a4.16,4.16,0,0,0-.56,1.76l1.11.53h.56c0-2.24.74-3.37,2.23-3.38a4.1,4.1,0,0,1-.56-1.62h-.55Zm1.13-13.09V63.9h1.67v-.54a1,1,0,0,0-1.11-1.07Zm3,64.67q0,1.62-2.22,1.65v1.07l1.67,0c.75,0,1.12-.37,1.12-1.09v-1.62Zm-2.25,43.3v.54h.55c.37,0,.56-.19.56-.55l1.11.52,1.12-.56v1.62a4.53,4.53,0,0,1,2.22-.58v-1.08l-2.22,0c.22-.44.33-.65.56-1.09l-2.79.05C350.31,169.25,349.94,169.62,349.94,170.25Zm4.79-102.61c-1.2,2.61-2.32,3.92-3.34,3.93v.54l2.23,0a5.72,5.72,0,0,1,1.11,2.69v1.61q1.11,0,1.66,4.44a.48.48,0,0,0-.55.54l1.11.53a3.94,3.94,0,0,1,.56-1.62l1.11.53h.56V79.73h-1.67V79.2l.55-1.08c-.74,0-1.11-.4-1.11-1.2V73.68c0-4-.55-6.06-1.66-6.05Zm-3.35,24.68v.54h1.11v-.54Zm0,19.28v.53c.09.72.46,1.08,1.11,1.07.22-1.08.33-1.62.56-2.7h-.56C351.74,110.6,351.37,111,351.37,111.6Zm.34-96.51q.14,1.08,1.11,1.08h.56a1,1,0,0,0-1.12-1.08Zm.45,166v1.22l1.11,0V181.1Zm.56-5.4v1.62l1.67,0a4,4,0,0,1-.56-1.61Zm.89-88.27c-.22.86-.34,1.3-.56,2.16h.56c-.23.43-.34.65-.56,1.08v1.08h1.11a3.93,3.93,0,0,1,1.12-2.17c-.75,0-1.12-.71-1.12-2.14Zm0-17h1.11v1.08h-1.11Zm0,14.15v1.21h.56c.74,0,1.11-.41,1.11-1.22Zm0,23c.09.72.46,1.08,1.11,1.07v-1.08Zm1.45-97.56.55,1.08-1.11.54h-.56v-.54A1.08,1.08,0,0,1,355.05,10.1ZM354.4,163v.54l.55,1.07-1.11.55c.37,1.17.74,1.74,1.11,1.74,1.48-.56,2.23-1.16,2.23-1.79-1.11-.88-1.67-1.59-1.67-2.13ZM354.18,60.5v1.21h.56c.74,0,1.11-.41,1.11-1.22Zm0,1.75a4.11,4.11,0,0,1,.56,1.61h1.66v-.54c0-.71-.37-1.07-1.11-1.07Zm2-60.9.56,1.07L355.61,3c0-.35-.19-.53-.56-.53,0,.36-.18.53-.55.53V1.89A4.33,4.33,0,0,0,356.16,1.35Zm-1.77,167.2H355a1,1,0,0,0,1.11-1.1h-.55C354.76,167.56,354.39,167.93,354.39,168.55Zm.31-52.68v.54h1.12v-.54Zm1.69-31.27v.54c.22.48.33.72.56,1.2l1.11-.54h.56v.54c0,.54-.56,1.08-1.67,1.63l-1.12-.53V88c1.11,1.79,2.41,2.67,3.9,2.66h1.67v.54h1.11V90.07c-1.11,0-2.12-1.89-1.67-3.76a10.61,10.61,0,0,0,.56-2.83L358.62,83C357.13,83.51,356.39,84.06,356.39,84.6Zm5.33-82.72a4.52,4.52,0,0,0,2.23.54V3q0,.54-3.9,3.37a46.13,46.13,0,0,1,6.12.53V7.94h-.56L364.5,7.4a1,1,0,0,1-1.11,1.08h-.56q-4.44-2.15-4.44-3.36l-1.12.67c-.74,0-1.11-.4-1.11-1.21V4h2.78l1.11.54C360.52,2.78,361.07,1.89,361.72,1.88ZM356.41,60V61.7H357V59.94Zm.77,110.18,1.66,2.66v1.75c-.22,1.08-.33,1.63-.56,2.71h.56q3.9-6.12,5-6.14V170c-1.49,0-2.23-.51-2.23-1.59a.49.49,0,0,0,.56-.54h-.56A17.17,17.17,0,0,0,357.18,170.13Zm.34-109.65V61h1.11v-.54ZM367,67v3.91h1.11V72l-3.34.56a.48.48,0,0,0-.55-.54,3.62,3.62,0,0,1-3.34,2.18,1,1,0,0,0-1.11-1.07c0,.71-.56,1.08-1.67,1.08v2.16h1.66V75.28l2.79.52q.14-1.08,1.11-1.08h.56a.48.48,0,0,1,.55.54l1.11-.55h.56l1.11.53q0-3.23,2.79-3.24h.55l-.55-1.07-1.12.54c-.74,0-1.3-1.47-1.66-4.43Zm-8.13,117.36a4.1,4.1,0,0,1-.56,1.62l1.11.52H360V186a4,4,0,0,1-.56-1.6Zm-.22-95.89h1.11V89h-1.12Zm0,7.67h1.11V95.08C359,95.17,358.61,95.54,358.61,96.16Zm.24,66.8v2.7c.09.8.46,1.2,1.11,1.19v-.54l2.23,1.05a2,2,0,0,1,2.23-2.32,4,4,0,0,1-.56-2.15c-.37,0-.56.19-.56.55a6.08,6.08,0,0,0-2.78-1A4.31,4.31,0,0,1,358.85,163Zm0,15.89v.54c0,.36.18.54.56.53-.23.44-.34.65-.56,1.09v1.75l2.78-.58,2.23,0v-1.21c-1.49,0-2.41-.86-2.78-2.65A4.53,4.53,0,0,1,358.84,178.85Zm.9-118.38c0,1.52-.18,2.29-.55,2.29l.55,1.07a4.1,4.1,0,0,0-.56,1.62h.56a7,7,0,0,1,3.34-.56A23.84,23.84,0,0,1,362,60.45Zm-.57,21.41h1.12c.46,0,1.39-.9,2.78-2.71V77.41h-.55C360.29,78.51,359.18,80,359.17,81.88Zm.56,10.37c0,.91,0,1.37,0,2.29h.56c.74,0,1.11-1,1.11-2.83A4.44,4.44,0,0,1,359.73,92.25Zm1.66,2.27-.55,1.09v.53h1.66v-.54C362.51,94.87,362.13,94.52,361.39,94.52Zm2.47,71.74v.53H365v-.54Zm.32-76.2a4,4,0,0,1,.55,1.61h1.67a5.12,5.12,0,0,1,1.67-3.78H367C365.29,88.62,364.36,89.34,364.18,90.06Zm3.34-13.21.56,1.2a5,5,0,0,1-3.34,1.1v.54c0,.72.74,1.07,2.22,1.06v.54l-1.11,1.62c.83,0,1.95.71,3.34,2.13,1.48-.54,2.22-1.09,2.22-1.62,0-.72-.92-1.07-2.78-1.06V81.28a1.06,1.06,0,0,1,1.12-1.08,8,8,0,0,1-1.12-3.36Zm-1.35-75h1.11V3h-2.22Q365.19,1.88,366.17,1.88ZM365,175.53l1.67,1.05,3.89-.05a4.12,4.12,0,0,1-.55-2.15L367.75,176h-.56v-1.62l-1.11,0C365.34,174.54,365,174.9,365,175.53Zm.55,5.38v.53h1.11v-.54Zm.56,3.89v1.62c.09.71.46,1.07,1.11,1.06l1.67,0a1,1,0,0,0,1.11-1.09v-.54Zm.33-108v1.21H367V76.85Zm.55,14.8a6.19,6.19,0,0,1-.56,2.83h1.67V91.65Zm.24,77.79v1.08h.55v-1.08Zm1.11,9.27a4,4,0,0,1,.55,1.61H370v-1.62Zm1.11,2.68v1.75l1.11,0v-1.75Zm.33-108.32v1.61a4.5,4.5,0,0,1,2.22.53,5.38,5.38,0,0,1,.56-2.7H372A4.62,4.62,0,0,1,369.75,73.07Zm.23,100.1a4.42,4.42,0,0,1,1.67.52v-1.61h-.56C370.35,172.18,370,172.55,370,173.17Zm.32-84.77v.54h1.11v-.54Zm0,2.69v.54h1.11v-.53Zm1.35,83.27c-.22.44-.33.65-.56,1.09a3.85,3.85,0,0,1,1.11,2.14h.56a4.22,4.22,0,0,1,1.12-2.7Zm8.9,12.41v.54h1.12c.55,0,1.11-.55,1.67-1.63v-.54h-.56C381.3,185.69,380.55,186.23,380.55,186.77Zm1.15-88.62v.54l2.78.52v-.53c0-.54-.55-1.08-1.67-1.61C382.07,97.16,381.7,97.53,381.7,98.15Zm1.95,0c-.23.43-.34.65-.56,1.08v.54a4.42,4.42,0,0,1,1.67-.55A1,1,0,0,0,383.65,98.14Zm0-10.89h.56c.74.09,1.11.44,1.11,1.07v.54h-.56c-.74,0-1.11-.35-1.11-1.07Zm.81,88.05v1.08h1.11C385.57,175.65,385.2,175.3,384.46,175.3Zm7.79-5.57c1.49.17,2.23.71,2.23,1.6,0,.54-.74,1.26-2.23,2.16h-1.11v-1.07h1.11v-.54c-.74,0-1.11-.17-1.11-.53a4.11,4.11,0,0,0,.56-1.61H390l.55,1.07v.54c-.46,0-1.58,1.13-3.34,3.38.46,2.15,1.2,3.22,2.23,3.21l2.22-3.78a4.52,4.52,0,0,0,1.68.53q2.22-4.45,2.78-4.45h1.11l1.12.53V169.7q-3.35,0-3.34-3.75Q394.49,166,392.25,169.73Zm-2.78-6.56v.53c.56,0,1.3.53,2.23,1.6l-.56,1.21v.54h1.11c0-1.52.56-2.28,1.67-2.29h1.67l1.12-1.62-3.9.56h-.56a4.39,4.39,0,0,1-2.22-.52ZM390.63,7.39h1.11V8.47A1,1,0,0,1,390.63,7.39Zm0,145.42v.54h1.67v-.54Zm1.11-3.37v1.21h1.11v-1.21Zm.55,26.34a4,4,0,0,1,.56,1.61h.55c.75,0,1.12-.36,1.12-1.08a1,1,0,0,0-1.11-1.07Zm3.34,0v.54h1.12v-.54Zm1.12-11.56v1.74h1.11v-1.75Zm0,15.31v.54h1.11v-.53ZM397.28,91q.14,1.08,1.11,1.08c.23-.43.34-.65.56-1.08Zm.54,84.79v.53h1.11v-.54ZM399,88.27c.09.72.46,1.08,1.11,1.07V88.27Zm5-60.19v1.07c0,.45.18.67.55.67-.22.43-.33.65-.56,1.08a4.06,4.06,0,0,1,.56,1.61q3.89-1.35,3.89-3.9l-1.11-.53Zm0,136.08v.54h1.11v-.54Zm1.68-134.34h1.12v.54h-1.12Zm3.89,64.48v.54h1.11V94.3Zm1.11,92.28h.55v1.07h-1.67A1.06,1.06,0,0,1,410.63,186.58Zm0-97.25v.53h1.12v-.53Zm1.12,6v1.08h.55V95.37Zm13.34-76.56h1.12a20.83,20.83,0,0,1,1.11,4.43,4.15,4.15,0,0,0-.56,2.15h-1.11V22.7C425.43,21.14,425.32,20.36,425.09,18.81Z"/><path class="cls-1" d="M441.64,27.41h.55v1.08h-.55Zm68.25,164.86q-31-.79-61.95-1.13c0-8.12,0-12.18,0-20.29,5.57,0,8.36.07,13.92.13-.5-9.26-.75-13.89-1.26-23.15q-.29-5.66-.14-13.32c-.23-.43-.34-.64-.56-1.08q.41-14.19.82-28.37c-.09-.36-.54-1-.69-1.62-4.69-19,0-50.94.24-76.4l-12.37,0c0-8.23,0-12.34,0-20.57h12.65V5.92l1-.54c.74,0,1.16.18,1.25.54l5.42-.54H476a5.34,5.34,0,0,1,2.36.54q.56,0,.42-.54c4.72.36,7.18.54,7.36.54q15.63.23,31.27.43V6.23l20.57,0q0,23.3,0,46.59c-8.23-.08-12.34-.12-20.58-.18,0-8,0-11.94,0-19.9H517a4.37,4.37,0,0,0-2.22.53,4.53,4.53,0,0,0-2.23-.56l-3.89.53a3.55,3.55,0,0,1-.7-1.63,18.66,18.66,0,0,1-4.31,1.06l-.69-1.08c.37,0,.55-.22.55-.67h-2.22c.06.7.08,1.05.14,1.75h-2.22l-1.81-1.08-4.87,1.06c.23,5.13.34,7.69.57,12.82-.17,1.29-.25,1.94-.42,3.23a6,6,0,0,1,.84,2.84H493l.55,1.08v.54a.48.48,0,0,1-.55.54c.28.48.41.73.69,1.22-.16,1.29-.25,1.94-.41,3.23a11.84,11.84,0,0,1,.69,1.76h-.55c0,.36.18.54.56.54-.17,1.08-.25,1.62-.42,2.69v.68c.09,1.08.33,1.62.7,1.62-.17,1.08-.25,1.62-.42,2.7.11,2.7.17,4,.28,6.75q17,.69,25.59.81c0,10.67,0,16,0,26.67a19.12,19.12,0,0,0-3.62-.46,4.46,4.46,0,0,0-2.22.5,4.67,4.67,0,0,0-2.23-.57h-.56l-2.78.5a4.16,4.16,0,0,1-.56-1.76,12,12,0,0,1-4.45.61,1.68,1.68,0,0,0-1.8-1.78l-.42,1.08c.37,0,.56.23.56.68l-1.12.53-1.11,0a4,4,0,0,0-2.23-1.24,3.62,3.62,0,0,1-1.66.65c.05.87.08,1.3.14,2.16,0,1.26-.09,2.93-.28,5a.49.49,0,0,0,.56.55c-.17,1.13-.25,1.7-.42,2.83q0,30.44.05,60.86c5.73.12,8.6.19,14.34.33C509.88,180.59,509.89,184.48,509.89,192.27Zm-58.2-34.7,1.11.55V156.5C452.06,156.59,451.69,156.94,451.69,157.57Zm1.12,17.22v1.61l1.67,0v-1.08A4.42,4.42,0,0,1,452.81,174.79Zm.55-9.14v1.08h.56v-1.08Zm.53-82.82V83.9H455A1,1,0,0,0,453.89,82.83Zm0,96.81v1.07h.56v-1.08Zm0,6.45v.54H455v-.54ZM455,142l-.55,2.15c.74,0,1.11-.53,1.11-1.61V142ZM455,2.69h.56a4.33,4.33,0,0,0,1.66.54c-.46,1.79-1,2.69-1.66,2.69H455V5.38a.49.49,0,0,1,.56-.54L455,3.77ZM457.75,0a4.11,4.11,0,0,1,.56,1.61h-1.12c0-.71-.55-1.07-1.66-1.07V0Zm-2.17,132.86v1.61a1.47,1.47,0,0,1,1.67,1.63h.55v-2.68l-1.11.52Q456.69,132.88,455.58,132.86Zm1.09-59.7v.54h1.67a1,1,0,0,0,1.11-1.07V71.56h-.56C457.41,72.09,456.67,72.62,456.67,73.16Zm.6,106c-.23.85-.34,1.28-.56,2.14a4.1,4.1,0,0,1,.56,1.62h1.11c.22-.85.33-1.28.56-2.14-.75,0-1.12-.55-1.12-1.63Zm0-36.58v1.07h.56v-1.08Zm1.11,1.08v1.08h1.12C459.48,144,459.11,143.65,458.36,143.64Zm0,9.69v.53h1.11v-.53Zm.55-18.83v1.08H460v-2.16C459.29,133.52,458.92,133.87,458.92,134.5ZM460,31.74c-.23.86-.34,1.3-.56,2.16H460c.55,0,1.11-.54,1.66-1.61l-1.11-.54Zm-.53,82.86v6.45h1.11a33.71,33.71,0,0,1-.56-6.46Zm1.08-94.15v1.07h1.11A1,1,0,0,0,460.54,20.45Zm0,28V49.5c.74,0,1.11-.35,1.11-1.07Zm.59,85.55v1.08h.56V134Zm1.07-90.93c0,.65,0,1,0,1.61h.55V43.05Zm.05,100.09v1.08q.14,1.08,1.11,1.08v-1.07A1,1,0,0,0,462.26,143.14Zm0,5.92v1.08c.75,0,1.12-.35,1.12-1.07V148C462.63,148.08,462.26,148.43,462.26,149.06Zm.55-14v.54c.1.72.47,1.08,1.12,1.09v-.54A1,1,0,0,0,462.81,135.07Zm0,5.39v1.07h.55v-1.08ZM465,31.22v1.07h.56V31.22Zm0,55.44v.53h1.11v-.54Zm.55-10.77V77h.55V75.9Zm.53-47.36v1.08h.56V28.53Zm0,53.29v.54h1.11v-.54Zm.53-43.6v.54h1.11v-.54Zm5,72.85c.05-.54.08-.81.13-1.35a1.22,1.22,0,0,0-1.39-1.36v1.35C470.36,110.52,470.78,111,471.71,111.07Zm-.57-16.3v.54a1,1,0,0,0,1.11-1.07v-.53C471.51,93.79,471.14,94.15,471.14,94.77Zm.71,27.61a1.34,1.34,0,0,0,1.53-1.33l1.39.69h.7v-2a1.23,1.23,0,0,0-1.4-1.36c0,1.35-.92,2-2.78,2-.05.81-.08,1.21-.13,2Zm-.19-98.15v.54h1.11v-.53Zm1.57,84.16c.93,0,1.4-.44,1.39-1.33h-.69c-.74,0-1.21.44-1.39,1.33Zm-.46-89v.54h1.11v-.54ZM476,110.44c0-.63.69-1.52,2.08-2.68l-2.08,0a1.2,1.2,0,0,1-1.39,1.34v1.34Zm-.43-24.25v1.08h.55V86.2Zm2.26,59c.11-1.35.16-2,.27-3.37.34-1.88.5-2.82.84-4.7l-2.09,0c-.17,3.23-.25,4.85-.41,8.08Zm.4-23.44h.7c0-1.07,0-1.61,0-2.69l-2.08,0v1.34C476.86,121.22,477.32,121.68,478.25,121.77Zm.26-24.64v-.68h-1.39v.67Zm.3,26.67v-.67l-1.39,0v.68Zm-1-91.47v.54a1,1,0,0,0,1.11-1.08v-.54Q477.78,31.39,477.78,32.33Zm7,96.26q2.93-4,4.31-4v-.68h-.69l-1.39.66a5.58,5.58,0,0,1-2.79-1.39c.74-3,1.58-4.92,2.5-5.9V116l-1.39,0,.14-4c.09-3.24-.52-5-1.81-5.42q-.15,2-1.53,2a8.25,8.25,0,0,1,1.25,4.06c-.05,1.07-.08,1.61-.13,2.69,1.39,0,2.08.48,2.08,1.37q-1.24,2.55-5,2.5v2H481l2.09-1.32a7.5,7.5,0,0,0,.42,2.7l-.7,1.34,2,2.72-1.39,2Zm-1.92,32h.55v1.08l-1.67,0C481.85,161,482.22,160.63,482.87,160.64Zm.68-18.72v-.67l-1.39,0v.67Zm-1.33-118.2V24.8h.56V23.72Zm2.18,145.57.7,0v-.68a1.24,1.24,0,0,0-1.39-1.37h-.56v.67A1.25,1.25,0,0,0,484.4,169.29Zm1.35-64.81c.11-.76.17-1.13.28-1.89a1.22,1.22,0,0,0-1.39-1.36l-1.39,0c.16,1.3.25,2,.41,3.24Zm2.8,16.75c0-.54,0-.81,0-1.35h-.69c-.74,0-1.21.44-1.39,1.33Zm.33-110.44h.56v1.08h-.55C488.88,11.44,488.88,11.22,488.88,10.79Zm1.61,111.81c.06-.54.09-.8.14-1.34l-1.39,0c-.05.54-.08.81-.14,1.34Zm.13-23.87v.54h1.11v-.54Zm2.77-12.92v1.62H494V85.82Zm3.85-52.33v3.24h1.12c0-1.08,0-1.62,0-2.7Zm.05,65.87v.54c.09.72.47,1.09,1.12,1.09q0-1.08,2.22-1v-.54ZM499,90.19v.54h1.12V90.2Zm1.06-67v1.62h.56V23.23Zm3.9,11.36c0,1.08,0,1.62,0,2.7q.13,1.08,1.11,1.08c0-.72.74-1.07,2.22-1.06a4.3,4.3,0,0,1-1.11-2.71Zm1.67-7v.54h1.11v-.54Zm6.73,62.78a4.1,4.1,0,0,1-.56,1.62l1.11.56A1,1,0,0,0,514,91.46a1,1,0,0,0-1.12-1.1Zm-.56,6v.54a4.31,4.31,0,0,1,1.67.56l.56-1.07V94.71h-.56C512.87,94.69,512.31,95.22,511.75,96.3Z"/><path class="cls-1" d="M546.7,8.16h.55V9.25h-.55Zm62.57,21.27a15.65,15.65,0,0,1-3.89.93l-.7-1.11c.37,0,.55-.22.55-.68l-2.22,0c.06.72.08,1.08.14,1.79l-2.22,0-1.81-1.11-4.86,1.06c.23,6.82.34,10.24.58,17.07-.17,1.37-.25,2.06-.41,3.43a5.47,5.47,0,0,1,.83,2.76h-.55c.22.5.33.74.56,1.24v.55a.49.49,0,0,1-.56.55l.7,1.11c-.17,1.32-.25,2-.42,3.29a12.34,12.34,0,0,1,.7,1.8h-.55a.49.49,0,0,0,.55.56c-.16,1.1-.24,1.65-.41,2.75v.55c.09,1.2.33,1.8.7,1.8-.17,1.1-.25,1.65-.41,2.75q.85,22,1.73,44c.23,4.53.34,6.79.57,11.31a5.52,5.52,0,0,1-.41,2.19.5.5,0,0,0,.55.57c-.16,1.59-.24,2.39-.41,4,.34,5.85.52,8.78.86,14.63,0,.37-.19.54-.56.53a13.12,13.12,0,0,1,.7,1.82l-.55,1.08a.5.5,0,0,0,.55.57c-.11,1.59-.16,2.39-.27,4,.12,2.93.17,4.39.29,7.32-.17,1.09-.25,1.64-.41,2.73q13.06,1,21.13,1.57l0-18.71c8.23.37,12.35.57,20.58,1l.07,47.57-6.12-.4-1.24.9-10.85-.68v.84q-35.94-2.12-71.91-3.59l0-20.42c5.57.19,8.35.3,13.91.51-.51-9.36-.76-14-1.28-23.39q-.29-5.61-.15-13.38l-.56-1.11q.4-14.25.8-28.51c-.1-.36-.55-1-.7-1.65-4.69-19.35-.07-51.42.18-77.12l-12.37-.08c0-8.22,0-12.33,0-20.55l12.65,0V7.37l1-.54c.74,0,1.16.18,1.25.55l5.42-.54h7.79a5.35,5.35,0,0,1,2.36.55c.37,0,.51-.18.41-.54,4.73.37,7.18.56,7.37.56q12.09.17,21.4.32C609.25,16.41,609.25,20.75,609.27,29.43Zm-59,162.82,1.12.05v.54l-1.12,0Zm2-188.44h.56v.55a1,1,0,0,1-1.11,1.09l-.56-1.09Zm1.67,1.1h2.22V6A1,1,0,0,1,555,7.09,1,1,0,0,0,553.92,6ZM555.77,155l-.55,1.75,1.11.86c.22-.65.34-1,.56-1.62Zm1.14,19.53c0,.55.56,1.11,1.67,1.7l.56,0v-1.09Zm2-152c0-.55-.18-.82-.55-.82-.22.71-.34,1.06-.56,1.77h2.23q1.11,0,1.11-1.77v-.82h-.56Zm-.42,109.11v1.91l.55,0v-1.91Zm.62,47.9v1.09c.74,0,1.12-.32,1.11-1.05Zm0,6.55v.54l1.67.07v-.55Zm.36-155h1.11V30C559.88,30.11,559.51,30.47,559.51,31.11Zm.14,2.32V35.2h.56c.83,0,1.25-.58,1.25-1.76Zm9.88,9.23c.93-1.81,1.53-2.72,1.81-2.72,0-1.27-.42-1.92-1.26-1.92-1.57,1.53-2.36,2.76-2.36,3.67A3.86,3.86,0,0,1,569.53,42.66Zm3.07,8.24-1.25-3.57a32.74,32.74,0,0,0-3.62.78l1.82,3.71Zm-2.46,30.47h.7v-1c-.65,0-1.48-1.26-2.5-3.73h-.56v3.69A3.28,3.28,0,0,1,570.14,81.37ZM569.62,109v-1.92l-1.81,0v1.91Zm-1.21,34c.84,0,1.26-.55,1.25-1.73v-1l-1.81-.06c0,1.1,0,1.64,0,2.74Zm4.79-59.77c-.22-.72-.33-1.08-.56-1.79-.46,0-1.9,2.11-4.3,6.34C570.47,87.8,572.09,86.29,573.2,83.21Zm-3,23.05v-1l-1.11,0v1Zm1.21-33.21c-.22-1.87-.34-2.8-.56-4.66l-1.25,0v3.69A4,4,0,0,1,571.38,73.05Zm-.5,41.43V112.7l-1.25,0v1.78Zm1.85,29.61v-2.74l-.69,0c-1,1.15-1.81,1.71-2.36,1.7v1.91A4.4,4.4,0,0,1,572.73,144.09Zm-1.29-24v-2.87l-1.25,0v1C570.19,119.25,570.61,119.9,571.44,120.1Zm-1,9.14v3.69l.69,0v-3.69Zm2.09-101.33a12.05,12.05,0,0,0,2.36-.94l1.26,1c0-.64.18-1,.55-1q-2.37-4.53-3.06-4.53c0,1.82-1,2.73-2.92,2.72v1.77A4,4,0,0,1,572.57,27.91Zm-1.18,51.57c.83,0,1.25-.57,1.25-1.76v-1h-.7c-.65,0-1,.62-1.11,1.9v.82Zm1.28,24v-.82l-1.25,0v.82Zm2.27-69.09c.5.39.75.59,1.26,1h.55c-.22-.72-.33-1.07-.56-1.79h-1.8l-1.26-1c-.74,0-1.15.59-1.25,1.77,1.21,0,1.81.65,1.81,1.93C574.53,36.28,574.94,35.64,574.94,34.36ZM575.57,87a3.63,3.63,0,0,1-2.36-1,10.69,10.69,0,0,1-.56,3.69c.37,0,.56.33.56,1C574.78,89.08,575.57,87.86,575.57,87Zm-1.77,25.83v-1l-1.12,0c0,.39,0,.58,0,1Zm.61-59.94.55-4.65c0-.54-.6-1.14-1.81-1.8,0,2.58,0,3.86,0,6.43Zm-.68,8.34V59.26h-.56v1.91Zm2.59,67.28c0-1.18-.42-1.79-1.25-1.82h-.56c-.74,0-1.16.55-1.25,1.74Zm-1.85-31.4V95.28l-.7,0V97ZM575.59,99V98l-1.12,0v1Zm.66-25.87,1.8-1.75c-.65-1.93-1.25-2.89-1.81-2.9l-1.25,0c0,1.86,0,2.79,0,4.65Zm0,38.76v-1l-1.25,0v1Zm0,20.27v-1l-1.26,0c0,.38,0,.58,0,1Zm.44-86.69v-.95l-1.25,0v1Zm.13,96c0-.38,0-.57,0-1l-1.25,0v1Zm2.37,5.56c0-1.48,0-2.22,0-3.7l-2.36-.08c-.75,0-1.16.6-1.25,1.87a3.65,3.65,0,0,1,1.81.89c-.22.76-.33,1.14-.56,1.9Zm-1.9-67.46v-.82l-1.12,0c0,.33,0,.49,0,.82Zm-.53,24v-1.78h-.55v1.78ZM578,48.23V46.45l-1.25,0v1.78Zm.53-16.58q2.51,0,3.61-6.41l-3.62-1c0,2.47-.41,3.7-1.24,3.7v1.91c.46,0,.69-.31.69-.95.74,0,1.12.6,1.12,1.79H578v1Zm.05,36.87v-.83l-1.25,0v.82Zm.52-31.38h1.25c.64,0,1.25-1.49,1.8-4.51l-1.25-1h-.56c0,2.47-.78,3.69-2.36,3.68C578,36.45,578.37,37,579.12,37.14Zm.1,74.83v-1l-1.11,0v1Zm0,9.18v-1.78l-1.11,0C578.12,120.43,578.49,121,579.23,121.15Zm0,7.4v-1.78l-1.11,0C578.13,127.83,578.5,128.44,579.24,128.55ZM578.38,6a4.25,4.25,0,0,0,1.67.55,4.21,4.21,0,0,0-.56,1.64h-1.11Zm2,58V62.1l-1.25,0C579.15,63.18,579.57,63.83,580.4,64Zm.63,52.66v-1c-.65,0-1,.57-1.11,1.75v1C580.66,118.45,581,117.87,581,116.68Zm0,11.93v-.82l-1.11,0v.82Zm.71,8.39.55,0v-3.71h-.56c-.74,0-1.2.6-1.25,1.74A1.73,1.73,0,0,0,581.76,137Zm-.06-44.3c0-.77,0-1.15,0-1.92H581v1.92Zm1.65-9.29,1.25,0c-.22-.72-.33-1.08-.56-1.8v-1l1.11,0v1.78l1.25,0,1.25-.8A9.45,9.45,0,0,1,587,78l-3.61,1.71V77.93l-1.11,0a9.94,9.94,0,0,1-.55,2.74C582.24,82.48,582.8,83.4,583.35,83.41ZM582,183.77c0,1.31,0,2,0,3.29l.55,0,.55-3.26Zm3.95-63.24a10.82,10.82,0,0,1,.55-2.86l-4.17-.13v1.92ZM582.51,175c.09.74.46,1.12,1.11,1.15v-1.1Zm0,7.14v.55l1.11.05v-.55ZM585.08,29c1.67-.9,2.5-1.81,2.5-2.73-1.21,0-1.81-.65-1.81-1.93l-3.06.94c0,1.1,0,1.65,0,2.74A3.3,3.3,0,0,1,585.08,29Zm-1,61.88c0-1.19-.42-1.8-1.26-1.81v1.78ZM583.6,163v1.1l.56,0V163Zm.26-13v1l1.11,0v-1Zm2-74.74V73.31l-1.25,0v1.93Zm.09,61v-1l-1.25,0v1Zm-1.2,38.93v1.1l.56,0v-1.1Zm1.69-83.26c.84,0,1.25-.61,1.25-1.89l-1.25,0c-.65,0-1.07.62-1.25,1.89Zm-1.13,87.68v.55c.1.74.47,1.12,1.12,1.15l2.22-2.1-.56,0ZM590,40.13c0-.64-.19-1-.56-1a10.1,10.1,0,0,1,.56-2.74l-3.07-5.66-1.11.95a47.57,47.57,0,0,0,1.13,9.21A5,5,0,0,1,590,40.13Zm-2.34,16.59-.7-4.68c-.65,0-1,.63-1.11,1.91,0,1.1,0,1.65,0,2.75Zm.11,73.07c0-.64.18-1,.55-.94a10.41,10.41,0,0,1-.56-2.77l-1.81-.06c0,1.1,0,1.65,0,2.75A4,4,0,0,1,587.73,129.79Zm-.12-85.15v-.83h-1.25v.82Zm0,2.88v-1l-1.25,0v1Zm3.76,101.78.56,0c0-1.19.41-1.77,1.24-1.74v-1l-.69,0-1.11.92c0-1.19-.84-1.82-2.51-1.88.28-.76.42-1.14.69-1.9,0-.92-.83-1.86-2.5-2.84,0,.64-.19,1-.56.94l2.37,4.62-1.11,0Q587.75,148.75,591.37,149.3ZM593.06,66q-.7-3-5.44-8.34h-.69a9.46,9.46,0,0,0,.7,2.76c-.28,1.48-.42,2.22-.69,3.7l.7,1.79,1.8-1.75H590c.83,0,1.25.94,1.25,2.77A3.07,3.07,0,0,1,593.06,66Zm-4.33-13.95h.69V50.29a3.18,3.18,0,0,1-1.81-1v1C587.61,51.37,588,52,588.73,52.07Zm.77,57.44v-1l-1.8,0v1Zm3.57-37v-.82c0-1.29-.42-1.94-1.26-2v1q-3.62,1.59-3.61,3.64Q592.1,72.47,593.07,72.48Zm-3,28.67a10.27,10.27,0,0,1-.56-2.77c-.74,0-1.16.57-1.25,1.76.22.77.34,1.16.56,1.94Zm1.26,5.67c0-1.29-.42-1.94-1.26-2s-1.15.61-1.24,1.89Zm-1.23,15.63v-1.79l-1.25,0v1.79Zm1.19-41.62.56,0a11.57,11.57,0,0,1,.55-3.71l-2.36.92v1A1.62,1.62,0,0,0,591.27,80.83ZM591.2,29c0-1.1,0-1.65,0-2.75h-.69V29Zm.21,146.41,1.11.6c.22-.43.33-.65.56-1.08,0-.88,0-1.32,0-2.2C592.24,172.7,591.68,173.6,591.41,175.42ZM593,39.2h.55v-1c0-1.19-.42-1.79-1.25-1.8h-.56v.82C591.77,38.36,592.18,39,593,39.2ZM593.09,92v-1l-1.25,0v1ZM593.58,42V41h-1.25v1Zm-.51,33.41V73.45l-.7,0c0,.77,0,1.16,0,1.93Zm0,21.32V93.8l-.7,0c0,1.16,0,1.74,0,2.89Zm.59,20.37v-1l-1.26,0c0,.39,0,.58,0,1Zm2.18,68.47v1.11l.56,0v-1.1Zm2.22-6.49v2.75l.56,0a4.2,4.2,0,0,1,.55-2.18Zm2.79,5.65A34.4,34.4,0,0,1,602,188.6l.55,0q0-1.65,1.11-1.59a10,10,0,0,1,3.34,1.28,3.81,3.81,0,0,1,1.11-2.15,10.91,10.91,0,0,1-3.34-1.83v1.1l-.55,0a1,1,0,0,1-1.12-1.16A4.36,4.36,0,0,1,600.88,184.69Zm1.09-9.87c0,.22,0,.33,0,.55l1.66.08v-2.21C603.08,173.22,602.53,173.74,602,174.82Zm0,4.41v1.1l.56,0v-1.1Zm29.22-167h1.11c.74.1,1.11.47,1.11,1.12v1.12h-1.11A4.09,4.09,0,0,0,631.2,12.24Z"/><path class="cls-1" d="M667.21,25.49l-12.37-.11c0-7.91,0-11.86,0-19.77l59.34.13c0,8.09,0,12.14,0,20.24l-11.95-.14v.29q2.22,0,2.22,1.17v.43a7.12,7.12,0,0,1-.83,3.7c0,.29.19.43.56.44l-.55,2.42a21.63,21.63,0,0,0,.84,4.16,163,163,0,0,0-.39,20.71c-.65.08-1,.4-1,1a9,9,0,0,1,1.25,3.6c.45,6.79-.44,11.47-2.2,13.5v.58l1.67.05v.71c0,.39-.19.57-.55.56.27.46.41.7.69,1.16-.44,1-.66,1.44-1.11,2.39L704.12,85c0,1.24-.55,1.84-1.67,1.8.06.4.09.6.14,1,.74,0,1.12.23,1.12.61q0,2.15-.12,12.42c.27.53.41.79.69,1.32l-1,3.38c0,.39.44,1.16.56,1.89.43,2.46-.22,6-.12,8.28,0,1.37.08,2.06.14,3.43l-.55,1.12a.53.53,0,0,1,.55.6c-.74.06-1,.51-1,1.23a.55.55,0,0,0,.56.6c-.17,1.14-.25,1.7-.41,2.84.2,9.69.84,19.88-1.07,29.49a28.83,28.83,0,0,1,.7,3.62q-.27,5.68-.13,8.84c.22.42.34.62.56,1q-.55,1.25-.82,8.79a.72.72,0,0,0,.69.63,16.06,16.06,0,0,0-.41,3.68l11.8.91,0,20.09Q684.8,200,655.11,198c0-7.85,0-11.78,0-19.63l10.28.66c-.11-2.37-.17-3.55-.28-5.92,0-.38.18-.56.55-.53-.28-.47-.42-.7-.69-1.17.08-2.72.41-4.06,1-4,0-.47-.19-.72-.56-.74.33-2.23.5-3.35.83-5.58,0-.47-.19-.71-.56-.74q.42-3.77.39-18c-.22-.46-.33-.69-.56-1.15a138,138,0,0,1,.95-15.16l-.55-1q.52-12.36,1.09-13.33l-.7-2.28q.67-11.65.24-22.23a6.51,6.51,0,0,1,.41-2.24.51.51,0,0,0-.55-.58,112.94,112.94,0,0,0,.53-15.61h.56l-.7-1.28c-.11-11.42-1.32-23.51.78-34.77-.23-.51-.34-.77-.56-1.28.16-1.35.25-2,.41-3.37-.09-.47-.33-.71-.69-.71l.55-1Zm-1.42-17h1.11V9h-1.11Zm2.78.57h.56v1.13h-.56Zm1.22,156.18c-.22.44-.33.66-.56,1.1l1.12.63.55-1.09Zm-.66-155h.56c0,.45.08.68.14,1.13h-.56C669.21,10.82,669.19,10.6,669.13,10.15Zm2.08,174.32V185c.09.76.46,1.16,1.11,1.21l1.11.08v-1.13Zm.68-9.54v1.12l.55,0V175Zm1.23-99.28c.23.46.34.69.56,1.15q-1.66,0-1.53,1.08v.57l2.23.06c.55,0,1.06-.53,1.52-1.65A6.14,6.14,0,0,0,673.12,75.65Zm-.58,75.62c0,.45,0,.67,0,1.12.74.05,1.11-.31,1.11-1.06-.06-.46-.09-.68-.14-1.14C672.77,150.24,672.45,150.6,672.54,151.27Zm.48,38.41c.06.45.09.68.14,1.14l1.11.08c0-.46-.08-.69-.14-1.14Zm.06-49.11.15,1.7c1.48.08,2.22.69,2.22,1.82.74,0,1.11-.32,1.11-1.07v-1.7l-.56,0-1.11.51a1.21,1.21,0,0,0-1.25-1.2Zm.23,55.9c.19.77.6,1.17,1.25,1.22l.42-1.1Zm.31-160.33v.56l2.78-.52v-.57a1,1,0,0,0-1.12-1.14C674.73,34.46,674.17,35,673.62,36.14Zm.08,54.21c.06.68.09,1,.14,1.7l.56,0A1,1,0,0,0,675.51,91l-.14-.57Zm.51,62.14c.19.77.56,1.16,1.12,1.19l.55,0a1.06,1.06,0,0,0-1.11-1.2Zm.6,27.71v.57l1.12.07c0-.22,0-.33,0-.56Zm1.07-29.31V152a1.06,1.06,0,0,1,1.11,1.2l1.67.1c-1.11-1-1.67-1.8-1.67-2.36ZM676,52c0,.45,0,.68,0,1.13A3.91,3.91,0,0,1,678.23,52v-.56h-.56A4.13,4.13,0,0,1,676,52Zm.5,139.06c.55,1.55,1.11,2.34,1.67,2.38l1.11.08.55-2.22c-.74-.05-1.16-.65-1.25-1.79l-.56,0C677.47,189.43,677,190,676.5,191.06Zm.86-69.48c.12,2.72.18,4.07.29,6.79l1.67.09-.7-4-.15-2.83Zm.31,20.93v1.13l1.67.1v-2.27l-.56,0C678,141.5,677.67,141.85,677.67,142.51Zm.31,19.81v.57l1.11.07v-.57Zm0-115.94c.06.68.09,1,.14,1.7.74,0,1.07-.36,1-1.11Zm.14,93.33v.56l1.12.06v-.56Zm2,45.39v.56l1.11.08v-.56Zm.45-156.79L680,29.44c.06.68.08,1,.14,1.7h.56c.74,0,1.06-.36,1-1.12v-.57A1,1,0,0,0,680.55,28.31Zm-.26,6.79,1.66,0c-.05-.45-.08-.68-.14-1.13h-.55A1,1,0,0,0,680.29,35.1ZM682.94,136l1.11,1.77L682.53,140c.22.46.33.7.56,1.16a5.64,5.64,0,0,0-.42,2.25L681,142.13l-.56,0v1.7a4.19,4.19,0,0,1,4,2.49c0,.76-.55,1.11-1.66,1,.06.91.08,1.37.14,2.28a7,7,0,0,1-1,3.34q1.11.06,1.26,1.77,1.51-.33,1.38-4.45c-.06-1.36-.09-2.05-.14-3.41l1.11.06v-1.13q-1.12-1.33-2-5.21a3.73,3.73,0,0,1,2.22-1l1.12.62.55,0v-.57q-1.11-.06-3.48-3.6Zm-1-11.38v.57l1.11,0v-.56Zm.41-93.46c0,.46,0,.68,0,1.14a1,1,0,0,0,1.1-1.12Zm.25,71.4v.57l.56,0c.74,0,1.11-.33,1.11-1.09v-.57l-.56,0C683,101.54,682.61,101.9,682.61,102.56Zm.64,53.86c-.17,1.13-.25,1.69-.41,2.81l1.11.07c.74,0,1.11-.31,1.11-1.06s-.09-1-.14-1.71Zm.1-114.48L685,42V40.84h-.56Q683.35,40.95,683.35,41.94ZM684,81.07v1.7c1.48-.52,2.22-1.06,2.22-1.63Zm1.48,61.31c.09.76.47,1.16,1.11,1.2l.56,0v-1.14ZM687,90.82c.06.23.08.34.14.57l1.67.06-.15-1.71-.55,0C687.41,89.79,687,90.16,687,90.82Zm.49,50.54c.06.46.09.69.14,1.14l1.11.07c0-.46-.08-.69-.14-1.15Zm5.7-88.44v.57l2.23,0V53Zm.52-27.31c0,.48,1,1.44,2.92,2.88l-.14-1.14c-.45-.92-.67-1.37-1.11-2.29A4.13,4.13,0,0,1,693.75,25.61Zm1.13,12.54v1.14l1.67,0V38.18ZM695,55.24v.57l1.12,0v-.57Zm.27-6.26v.57l1.67,0V49Zm.27-5.69v.57l1.11,0v-.57Zm.31,18.23v.57l1.11,0v-.57Zm5,2.41L702,64v.57l-1.11,0Z"/><path class="cls-1" d="M782.11,25.64V5.93l52.8.17V26.39L821,26.18c-.1.2-.31.42-.42.6a.3.3,0,0,0,.28.46l-1.53,2.85a45.75,45.75,0,0,0-1,5q-4.44,10.63-8.88,24.49a1.56,1.56,0,0,0-1.25,1c-.22,1.19,0,3-.41,4.34q-4,12.18-7.49,15.75c-.05.24-.08.36-.14.59l1.39.06c-.11.3-.16.45-.28.74q-.27.73-.69.72c.06.54.08.81.14,1.35l-1.94,2.75c0,1.08.08,1.62.14,2.7-.56,1.47-1.3,2.18-2.22,2.14l-.28,1.18c.65,0,.84.24.56.62q-.56,1.47-2.36,6.9,3.2,9.57,7.09,20c.22,1.09.33,1.64.56,2.73.55.84,2.68,6.31,6.38,16.51,0,.48,0,.72,0,1.21q3.46,8.07,7.21,19c0,.48-.08.72-.14,1.2,4.07,11.83,6.75,19.38,8.05,22.55-.37,0-.47.25-.28.88l3.05,7.3c-.28,0-.33.22-.14.74.37,0,.92,1,1.66,2.92l6.79.75v20.29q-26.31-3.23-52.64-6.12c0-7.89,0-11.83,0-19.71,5.61.55,8.41.83,14,1.4a40.72,40.72,0,0,0-2-4.52v-1q-1.24-3.7-3.75-10.79a34.8,34.8,0,0,1-.83-4.24,277.4,277.4,0,0,1-11.26-29.69c-3.41,9.34-6.67,18.86-11.21,27.74a16,16,0,0,1-1,4q-2.49,6.56-3.73,10c.05.42.08.63.14,1a33,33,0,0,0-1.94,4.08c5.6.52,8.4.78,14,1.32,0,7.85,0,11.78,0,19.64q-26.34-2.76-52.71-5.18c0-7.66,0-11.49,0-19.15l8.61.71c.74-1.67,1.29-2.49,1.66-2.46.28-.46.23-.71-.14-.74,1.28-2.55,1.91-3.83,3.19-6.39.09-.58,0-.87-.28-.89,1.29-2.8,3.92-9.54,7.88-20.3V154q3.74-9.9,7.2-17.27c-.06-.47-.09-.7-.14-1.17,3.78-9.39,6-14.49,6.5-15.24.17-1,.25-1.56.42-2.61q3.87-9.87,7.2-19-1.95-5.37-2.51-6.86c-.19-.4,0-.59.56-.57-.06-.47-.09-.7-.14-1.18-.93,0-1.67-.8-2.23-2.29.06-1.06.08-1.58.14-2.63l-2-2.87c.06-.52.08-.78.14-1.31-.28,0-.51-.26-.7-.76l-.28-.74,1.39,0c-.11-.24-.16-.36-.28-.59q-3.46-3.8-7.51-15.9a29.27,29.27,0,0,1-.42-4.25,1.45,1.45,0,0,0-1.25-1q-4.47-13.68-8.92-24.05a22.27,22.27,0,0,0-1-4.81c-.56-1.11-.84-1.66-1.39-2.77a.28.28,0,0,0,.27-.43c-.1-.18-.32-.39-.42-.59l-15.83-.18c0-7.66,0-11.49,0-19.15q26.4.07,52.8.15c0,7.85,0,11.78,0,19.63l-7.5-.09.42,1V28c4.49,9,7.52,18.92,10.72,28.41,3.32-9.46,6.37-19.14,10.81-28.1.06-.59.08-.89.14-1.48.16-.42.25-.63.41-1ZM741.76,198.18v.58l1.11.1v-.58Zm.54-6.93v1.16l1.11.1v-1.16Zm1.63-35.34v.58l1.11.09V156Zm2.82,42.15a4.39,4.39,0,0,1-.55,1.69l2.22.21a4.26,4.26,0,0,1,.55-1.69Zm3.88.36V199l1.11.1v-.58Zm1.62-47.15a4.58,4.58,0,0,1-.56,2.3l1.11.08v-2.34Zm.57,14.06v.59c.27-.37,1.94-.43,5-.19v-.58l-2.77-.81-1.11-.09C753.18,164.29,752.82,164.65,752.82,165.33Zm.56,3v3.51l.55,0a4.06,4.06,0,0,1,2.78-.94c-.23-1.19-.34-1.78-.56-3Zm.58,31-.55,1.11,1.66.16A1.12,1.12,0,0,0,754,199.33Zm.37-168.93c.37,1.38,1.67,2.37,3.9,3l.55-2.92Zm4.57,117.26-.55,1.13c.09.79.46,1.21,1.11,1.25a4.33,4.33,0,0,1,.55-1.71Zm-.54,12.85a4.47,4.47,0,0,1,2.22.76c.44-1.38.67-2.06,1.11-3.44l-.56,0A4.65,4.65,0,0,0,758.36,160.51Zm.56,1.8v1.17l1.11.09V162.4Zm5.41-139.4q0,1.18-1.11,1.17l.55,1.18c-.37,0-.55.19-.55.58h.56l1.11-.58v.59l-1.11,1.75c.37,0,.55.2.55.59h-.55a4.35,4.35,0,0,0-2.23-.61c0,.39.93,1.18,2.79,2.39,0,2.35-1.67,3.49-5,3.44V34c1.85,0,2.78.44,2.78,1.22L761,37v.59a4.39,4.39,0,0,1,1.67.62q3.33-.37,3.33-1.11l1.11.6,1.11,0a15.66,15.66,0,0,0-2.22-3,4.31,4.31,0,0,0,1.11-2.33q-.84-3.54-2.79-3.57V28.2l1.11,0V25.28c0-.39.19-.59.56-.58a4.61,4.61,0,0,1-.56-1.77Zm-5,32.18v.59q.14,1.18,1.11,1.2V56.3C760.47,55.52,760.1,55.11,759.36,55.09Zm1.12,6.48q0,1.18-1.11,1.14v.59l.55,0a4,4,0,0,1,1.67-.54A1.05,1.05,0,0,0,760.48,61.57Zm2.31,89.89v.59c.22.49.34.73.56,1.22l-1.11.5a1.1,1.1,0,0,0-1.11-1.26,3.77,3.77,0,0,1-1.67.46v1.18c.74,0,1.11.28,1.11.67l1.11-.51,1.12.68c1-.12,1.75-1.05,2.21-2.77-.44-.27-.66-.41-1.11-.67Zm-2.88-97.52v.58l1.66,0V54Zm.64,80.35v1.17l1.12.08c0-.47,0-.71,0-1.18Zm.47-85.6q0,.87,2.22,2.4h.56a4.77,4.77,0,0,1,1.11-2.91l-1.11,0Zm.08,80.95v1.17l.55,0a4,4,0,0,1,1.66-.48v-1.17l-.55,0A3.92,3.92,0,0,1,761.1,129.64Zm0,17.59a5,5,0,0,1,.56,1.8c.74.06,1.11-.31,1.11-1.09l-1.11-.67Zm.57,15.89a4.33,4.33,0,0,1-.55,1.71v.59l.56,0a4.33,4.33,0,0,1,.55-1.71v-.59Zm-.53,18.72V183c.74.06,1.11-.29,1.11-1.08Zm.43-116.71V66.3l1.11,0C762.7,65.56,762.33,65.15,761.59,65.13Zm.07,61c.09.79.46,1.2,1.11,1.24l.55-1.14Zm0,10.56v1.18l1.11.07A1.09,1.09,0,0,0,761.67,136.71Zm.47-83.3V54q.14,1.17,1.11,1.2h.56l2.77-.51L766,53.51c-.37,0-.55.18-.55.57l-2.78-.66Zm0,18.19v.59q1.11,0,1.11,1.8l.55,0c.56,0,1.11-.55,1.67-1.7v-.59Zm.09,87.45v.59q.13,1.19,1.11,1.26l1.11.09v-1.18Zm1-116.18v.59c0,.58.55,1.18,1.67,1.79.74,0,1.11-.36,1.11-1.15s-.38-1.18-1.12-1.2Zm0,22.9v1.17l1.11,0V65.81Zm.65,96.35-.55,3.48a4.46,4.46,0,0,1,1.67.72c.66-.88,1-1.33,1.66-2.21Zm1-85.13v.59l1.11,0V77Zm.59,35.29v1.18l.55,0v-1.18Zm0,18.23v1.17l.55,0v-1.18Zm0,6.46c.22.49.34.73.56,1.22a4,4,0,0,1,1.66-.48v-.58Zm0,33.51v1.18l1.66.14a1.11,1.11,0,0,0-1.11-1.27ZM766,47.63v.59l3.33.67c0-.79-.55-1.19-1.66-1.22Zm0,20a4.92,4.92,0,0,1,.56,1.79l1.11,0,.55-3.52-.56,0C767.43,65.91,766.87,66.48,766,67.62Zm.58,20.61v.59a4.27,4.27,0,0,1,1.66.66V88.3Zm2.17-50c0,1.58-.56,2.35-1.67,2.33.23.47.34.71.56,1.18h-.56c0,1.18,1.3,2,3.9,2.44-.23-.47-.34-.71-.56-1.19v-.59c.09-.78.46-1.17,1.11-1.15v1.77l1.67,0q0-3.54-3.9-4.79Zm-1.59,80v1.18l1.11.06A1.08,1.08,0,0,0,767.2,118.26Zm.55-8.8,2.22.13v-1.18l-1.12-.06C768.11,108.41,767.75,108.78,767.75,109.46Zm0,3V113c0,.58.56,1.2,1.67,1.86l.55,0c.37,0,.56-.16.56-.56l1.11.65,1.11-.52a5,5,0,0,1-.56-1.8Zm.49-71.2h.55V42.4h-.55Zm0,44.15,1.11,1.81a4.52,4.52,0,0,0-.55,1.75l.55,0a4.09,4.09,0,0,1,2.22-.49c-.22-1.66-.33-2.49-.56-4.15l-.55,0A3.83,3.83,0,0,1,768.28,85.36Zm0,48.86c0,.94,0,1.41,0,2.35l.55,0c.56,0,1.11-.51,1.67-1.65Zm.49-74.75v.59l1.11,0v-.59Zm.06,60.07v1.76l1.66.1v-2.94l-.55,0C769.23,118.48,768.86,118.85,768.87,119.54Zm.51-48.27v.59l1.11,0v-.59Zm0,44.76v.59l2.22.13v-1.18A4,4,0,0,1,769.42,116Zm0,17.09v.58l2.22.74c0-.78-.55-1.21-1.66-1.29Zm.53-29.43.56,0c.74,0,1.11-.33,1.11-1.12l-.56,0C770.33,102.63,770,103,770,103.69Zm0,20.63a5.08,5.08,0,0,1,.56,2.39,6.07,6.07,0,0,1,3.33-.38v-1.18l-2.22-.73V125l-1.11-.66Zm.51-51.83v.59a1.59,1.59,0,0,1,1.67,1.83q.69,0,2.77-3.44l-1.67-.06A4.17,4.17,0,0,1,770.49,72.49Zm0,6.48v.59l1.11,0V77.84C770.86,77.91,770.49,78.29,770.49,79Zm.57,11.22a5,5,0,0,1,.56,1.8c.74,0,1.11-.34,1.11-1.13v-.59Zm0,3a.54.54,0,0,0,.56.62c-.22.46-.33.69-.56,1.15a.54.54,0,0,0,.56.62l-.55,1.15v1.18l.55,0c.65,0,1.2-1.31,1.66-4Zm.52-44.2v.59l1.11,0V49Zm3.33,3.63q0,1.77-3.33,1.68v1.18a4.81,4.81,0,0,1,3.34,1.27c0-.78.55-1.16,1.66-1.13l1.11.62a4.2,4.2,0,0,1,2.22-.53l-.55-1.2c.37,0,.55-.18.55-.57a4.28,4.28,0,0,1-2.22-.66V55q-1.11,0-1.11-2.4Zm-3.33-.09v.59l1.11,0v-.59Zm0,7.67v2.94l2.22.07V61.39c0-.78-.37-1.19-1.11-1.21Zm.63,79,.55,0c.55,0,1.11-.51,1.66-1.66v-2.36C773.32,135.15,772.58,136.47,772.22,139.2Zm1.08-25.3v1.18l.56,0v-1.18Zm.5-64.31,2.78.66c0-.59-.56-1.2-1.67-1.82A1.08,1.08,0,0,0,773.8,49.59Zm.05,52v1.18l1.66.08a1.08,1.08,0,0,0-1.11-1.24Zm.56,5.93v.59l1.11.06v-.59Zm.55,1.21-.55,1.15v.59l.55,0c0-.78.37-1.16,1.11-1.12v-.59Zm0,12.4v.6l1.12,1.84c-1.11-.07-1.67.29-1.67,1.07v.59l.56,0c.74,0,1.11-.52,1.11-1.7l1.11.07v1.77l-1.11-.07v1.77a4.45,4.45,0,0,1,2.22.74,3.88,3.88,0,0,1,1.66-.49.55.55,0,0,0,.56.63l1.11-1.7c-1.48-.1-2.22-.54-2.22-1.33v-1.18l.55-1.15c-1.48-.1-2.22-.53-2.22-1.32v-1.19l2.22.14v.59l1.66.1-.55-1.22.55-1.15-2.22-.13Q776.64,121.19,775,121.08Zm-.55-2.39v.59l1.11.07v-.59Zm.55-7.06v4.14l.55,0c.56,0,1.11-.52,1.67-1.67a1.09,1.09,0,0,1-1.11-1.25l1.1-1.71V110l-.55,0C776.07,109.92,775.52,110.48,775,111.63Zm0,17.72,1.11.08v1.18l-.55,1.14c3.24,1.8,5.09,2.71,5.55,2.75L780,132.64v-1.18l1.11.67.55-1.15v-.59l-1.66-.11v1.18l-1.11-.08c-.56,0-1.11-.66-1.67-1.88.37,0,.56-.16.56-.56l-1.12-.66-.55,0Q775,128.33,775,129.35Zm0,3.55c0,1.42,0,2.12,0,3.54l1.66.12c-.22-1.2-.33-1.8-.56-3,.37,0,.56-.16.56-.55Zm.48-89.77v.59l1.11,0v-.6Zm1.14,29v.59c.09.8.46,1.2,1.11,1.23l.55-1.17A4.16,4.16,0,0,1,776.6,72.12Zm.57,18.35c-.22.47-.34.7-.56,1.16l.56,0a4.07,4.07,0,0,1,2.22-.48v-.6Zm-.53,27.76v.59l1.11.07v-.59Zm.55-2.33v.59q2.22.14,2.22,1.32l.56,0v-1.18a1.09,1.09,0,0,1-1.12-1.25A3.88,3.88,0,0,1,777.19,115.9Zm.51-50.24c0,2,.37,3,1.11,3,1.12,0,1.67-.73,1.67-2.31l1.11.63.56,0L781,65.17Zm.06,71v.6c.23.48.34.73.56,1.22l1.11-.52,2.77.79c.22-.45.34-.68.56-1.14l-1.11-.67.55-1.15v-.59l-.55,0A6.7,6.7,0,0,1,777.76,136.63Zm.48-87.52c.65,2,1.58,3,2.78,3L783.24,51a4.13,4.13,0,0,0,1.67.64q-2.77-2.15-2.78-4.22l-1.11,0C779.17,48.24,778.24,48.81,778.24,49.11Zm0,12.42a5.09,5.09,0,0,1,1.12,3l1.11,0c.37-2.35.92-3.52,1.66-3.5l.56,1.21c-.45.69-.67,1-1.11,1.74l1.11.63,1.11,0c.67-1.87,1-2.81,1.66-4.69q-1.11,0-1.11-.63C783.81,59.33,781.77,60.07,778.25,61.53ZM780,104.81c0,1.19-.37,1.76-1.11,1.72l.55,1.21a4.52,4.52,0,0,0-.55,1.75l1.11.65,1.11.06a4.75,4.75,0,0,1,.55-2.33,6.64,6.64,0,0,1-.55-3Zm0,8.29v.59l1.11.07v-.59Zm1.08-39v.59l1.67.07V73.53A3.87,3.87,0,0,1,781,74.06Zm0,9.48v2.37l.56,0q1.11,0,1.11-1.14c0-.79-.38-1.2-1.12-1.23Zm.55-4.72c.22.49.33.73.56,1.21a4.14,4.14,0,0,1,2.22-.5V77.75A4.1,4.1,0,0,1,781.6,78.82Zm0,19v.59l1.66.09c.22-.94.33-1.41.56-2.35l-.56,0C782.72,96.07,782.17,96.63,781.62,97.79Zm0,36.15c0,.24,0,.36,0,.6l1.1.07V134Zm1.11-10,.55,1.22q-1.11.07-1.11,1.11l2.22,1.93c.56,0,1.11-.52,1.67-1.67-.74,0-1.11-.87-1.11-2.45Zm.55-5.9,1.11,1.85c-.22.46-.33.69-.56,1.15l1.11.07c.23-1.17.34-1.76.56-2.93v-.6A4,4,0,0,1,783.3,118Zm.51-60.49v1.19l1.11,0A1.06,1.06,0,0,0,783.81,57.55Zm1.17,79c-.23.46-.34.69-.56,1.15v.59l2.22.75v-.59C786.64,137.85,786.09,137.22,785,136.55ZM784.93,73v.6l1.66.06v-.59Zm0,42.75V117c.74,0,1.11-.33,1.11-1.12Zm.5-67.07v1.18l.56,0V48.71ZM787.7,66V64.81l-.56,0c-1.11.36-1.66,1.52-1.66,3.5l.56,0,2.22-1.11,1.66.06v-.59l1.11,0-.55,1.18,3.89,1.92V68l-1.12,0V66.19l.56-1.18c-1.48-.05-2.22-.27-2.22-.67Zm0,17.84c0,.79-.74,1.16-2.22,1.09,0,.8.74,1.22,2.22,1.29v.59L787.16,88a1.17,1.17,0,0,1,1.11,1.24c-.37,0-.55.17-.55.57l1.11.64c2.59-.27,3.88-.8,3.88-1.6C792.34,87.61,792,87,791.6,87a3.93,3.93,0,0,1-1.66.52v-.6l.55-2.35-1.11.54a1.07,1.07,0,0,0-1.11-1.24Zm-.55,10.68c0,.69-.55,1.65-1.66,2.88l2.22,1.3.56,0v-.59l-1.11-.06v-.59l1.66-2.3-1.11-.65Zm-1.66,7c0,.71,0,1.07,0,1.78s.46,1.21,1.11,1.25l1.11.06C787.26,102.73,786.52,101.7,785.5,101.55ZM787.73,113c0-.39-.18-.6-.55-.62,0,.79-.56,1.15-1.67,1.09V114c.1.8.47,1.22,1.12,1.25l1.1.07q0-1.34,2.22-1.65V112.5l1.11.06c0,1.59.93,2.44,2.78,2.55v-1.19l1.11.67.55,0a4.66,4.66,0,0,1,.56-1.76c-2.22-.93-3.33-1.59-3.33-2ZM786,54.65v.59l1.66,0V54.7ZM786.1,155v.6a4.27,4.27,0,0,1,1.66.72v-1.78A3.74,3.74,0,0,1,786.1,155Zm.48-105.72c0,.79.55,1.2,1.66,1.23l.56,0V50Zm0,67.14.55,1.23-.55,1.15a4.29,4.29,0,0,0,2.22,1.33l.55,0v-.59c-.74,0-1.11-1.06-1.11-3Zm.53-24.33v.59l1.11.06v-.6Zm.52-49.32c0,.59.56,1.2,1.67,1.82l1.11,0c0-.6-.56-1.21-1.67-1.83Zm2.79,16.73-.55,1.17c-.45-.25-.67-.37-1.11-.63-.75.08-1.12.47-1.11,1.16v.59l2.77-.5H791v.6c-.22.47-.33.7-.56,1.17l.56,0,1.11-.56a4.18,4.18,0,0,0,1.67.65c0-.39.18-.59.55-.57v1.19l2.78.09,1.67,1.26c0-.72,0-1.08,0-1.8l-1.66,0V59.75l-1.11,0-2.78.5v-.59l-1.11.56A4.18,4.18,0,0,0,790.47,59.54Zm-2.21,15.39v1.79l-.55,3,1.11,0q1.11.06,1.11-1.14V75Zm-.52,49.92V126l.56,0c.74,0,1.11-.32,1.11-1.12Zm1.1-23.72a4.8,4.8,0,0,1-.56,2.35l.56,0a5.42,5.42,0,0,1,2.77-1C791.61,101.68,790.68,101.23,788.84,101.13Zm0,29.75v.59l1.11.08V131Zm.49-80.9v.6l1.12,0c0-.24,0-.36,0-.6Zm4.45,6.68L789.91,56v.6A4.68,4.68,0,0,1,791,59l.55,0c1.95-1.53,3.61-2.28,5-2.23v-1.2l-1.11,0ZM790,108.33v1.19l1.67.1c.74,0,1.11-.33,1.11-1.13Zm.53-38.67v1.19l1.67.07v-.6A4,4,0,0,1,790.48,69.66Zm0,26.2v1.19l.55,0V95.89ZM791,47.65v.59c.22,1.2.33,1.8.56,3a4.05,4.05,0,0,1,1.66-.55l-.55-3Zm.06,95.88v1.2l1.12.08c0-.48,0-.71,0-1.19Zm.56,1.83v.6l1.11.08v-.59Zm1.67,2.52-1.67,2.25c.37,0,1.67,1.12,3.89,3.29l.55.05v-.6c-1.11-.09-1.66-.53-1.66-1.33l1.11-.51.55.05,1.11.69c0-.8.56-1.15,1.67-1.07C798.85,150,797,149.06,793.31,147.88Zm-1.65,18.33v1.2l.55.05v-1.2Zm.52-46.43v.6a4.3,4.3,0,0,1,1.66.7l1.11-1.72-.55,0A4,4,0,0,1,792.18,119.78Zm0,65c0,.59.56,1.24,1.67,1.95l.55-2.93v-.6l-.56,0C793.33,183.06,792.78,183.6,792.22,184.74Zm.53-47v.6c.09.8.46,1.22,1.11,1.27l.55,0v-1.19l1.11.08a19.32,19.32,0,0,1,.56,4.22l.55,0q1.11.09,1.11-1.11v-1.2l-1.11-.08c0-.79.55-1.15,1.66-1.07v-.6c-1.85-.13-2.77-.6-2.77-1.4Zm.52-51.84.55,0q1.11,0,1.11-1.14l-.55,0C793.63,84.79,793.27,85.17,793.27,85.86Zm.55.62v1.2l.56,0V86.51Zm3.36,41.39.55,1.23v1.79l-3.88.93v.59l2.78.79,2.77.2c-.22-.49-.33-.74-.56-1.23l1.11-.52c-.55-1.64-1.11-2.48-1.66-2.51.44-.93.66-1.39,1.11-2.32l-.56,0Zm-3.32,15.87v1.2l.55,0q1.11.09,1.11-1.11Zm0,13.13.55,1.24a4.43,4.43,0,0,0-.55,1.74l1.66.14c.67-1.85,1-2.78,1.66-4.64l-1.11-.69-.55,0C795.16,154.59,794.61,155.34,793.87,156.87Zm.55,3.62-.55,1.15c0,.59.56,1.24,1.67,1.93l.55.05C795.62,161.59,795.07,160.55,794.42,160.49Zm0,17.9c-.23.46-.34.68-.56,1.14l.56.05a3.71,3.71,0,0,1,1.66-.43v-.6ZM797.7,66.94q0,2.39-2.22,2.31v.6l1.66,2.45c-.46,0-1.38.94-2.77,2.87v.6a4.48,4.48,0,0,1,2.78,1.31c.55,0,1.11-.75,1.66-2.33-.74,0-1.11-.44-1.11-1.24v-.59l2.22.08V71.21l-1.11,0v-.6c0-.4.18-.59.55-.58l-.55-1.22a4.63,4.63,0,0,0,.55-1.77Zm-3.33,4.66q.14,1.2,1.11,1.23V71.64Zm1.67,6a4.78,4.78,0,0,1-1.11,2.94l.55,0a4,4,0,0,1,2.22-.5.54.54,0,0,0,.56.62v-1.2c0-.59-.56-1.21-1.67-1.86ZM795,185v.59l1.11.11v-.59Zm0,10.74v.6l1.11.11v-.59Zm.51-77.55v.6l1.11.07v-.6Zm0,2.39,1.11.07v-1.19C795.88,119.52,795.51,119.89,795.51,120.59Zm0,.6v.59l1.11.07v-.59Zm0,7.76v.59l1.11.08V129Zm.59,53.18-.55,1.14a.57.57,0,0,1,.55.65c-.37,0-.55.15-.55.55l1.11.1a4.45,4.45,0,0,1,.55-1.73Zm-.55,8.3v.6c.74.08,1.11.31,1.11.71a3.88,3.88,0,0,1,1.66-.43v-1.79A3.81,3.81,0,0,1,795.55,190.43Zm.52-65.63V126c.74,0,1.11-.32,1.11-1.12Zm1.61-81.17v1.2l1.11,0c0,.72,0,1.08,0,1.8-1.49,0-2.23.34-2.23,1.14V49c0,.4.19.6.56.61l-.55,1.18v2.39L798.24,52l.56,0v.6l-.55,4.17a4,4,0,0,1,2.22,1.26l1.66,0c-.44-.73-.66-1.1-1.11-1.83v-.6l1.11.64q1.11,0,1.11-1.17,0-.9-3.33-3.09l.55,0-.55-1.22c0-.6.55-1.18,1.66-1.75a4.18,4.18,0,0,0,1.67.65c0-.4.19-.6.56-.59V51L806,51c-.22-1.21-.34-1.81-.56-3,.37,0,.56-.18.56-.58l-4.45-.12v1.2l-1.11,0V46.09H801c-.23-.48-.34-.72-.56-1.21a13.65,13.65,0,0,0,2.22-.54v-.6q0-1.2-1.11-1.23l-1.11.58c0-.8-.19-1.2-.56-1.21Q797.68,42.73,797.68,43.63ZM810,178.68v1.81a4.6,4.6,0,0,0-1.66-.77l-2.22,1c0-.7-.93-1.39-2.77-2.07,0,.8-.56,1.14-1.67,1,.23.5.34.75.56,1.25l-4.43,3.75q-.71-.06-1.11,2.28c.64.07,1.57.76,2.77,2.07l.56.06a7.32,7.32,0,0,1-1.11-3.1l.55,0c.74.08,1.11.71,1.11,1.91l.55.06,1.67-1a5.18,5.18,0,0,1,.55,1.85l1.11-.49,1.11.72c0-1.6.55-2.35,1.66-2.24l2.22.83,2.22.23A5.74,5.74,0,0,0,814.4,193l1.11.12-1.67-2.59a3.77,3.77,0,0,1,1.67-.43v-.6c-1.48-.16-2.22-.63-2.22-1.44l1.11-.49,1.11.12,1.1.72a4.56,4.56,0,0,1,.56-1.76l-1.11-.72-1.66-.17-1.11.49c0-.3-.56-1-1.67-2l-1.1.49a.58.58,0,0,1-.56-.66l-1.11.49-.55-.06v-1.2l1.11.11v-.6q-.42,0-3.33-.93v-.6a2.54,2.54,0,0,0,2.22-1l2.77.28a5.35,5.35,0,0,1-.56-1.86Zm-12.75-.62v.59c.09.81.46,1.24,1.11,1.3l.55-1.14A4.46,4.46,0,0,1,797.21,178.06Zm5.47-142.7,2.78-.55V36l-5,.5-2.23-.64V34.68c1.85,0,2.78-.55,2.78-1.75l-2.22,0a1.09,1.09,0,0,0-1.11,1.18v3.58l2.22.65,2.78-.55L806,39.62l.56,0V36l1.66,0v-.6c-.83,0-1.76-1-2.78-3.05,1.48,0,2.23-.36,2.23-1.16-.38,0-.56-.21-.56-.61l1.11-.59,1.11.62c.22-.47.34-.71.56-1.19l-1.11-.62-1.67,0c-.37,0-.56.2-.56.6l-1.11-.62Q802.68,29.67,802.68,35.36Zm-5,14.85,1.11,0v1.2C798.06,51.41,797.69,51,797.69,50.21Zm0,66.34v1.19c.74.05,1.11-.32,1.11-1.12Zm0,1.79v1.79c.74.05,1.11-.32,1.11-1.12Zm0,6.57,1.11.08v-1.2A1,1,0,0,0,797.73,124.91Zm0,39.45c0,.6.56,1.25,1.67,1.94a4.43,4.43,0,0,1,.55-1.74Zm0,1.79V168l.55.05v-1.8Zm.57,37.12a4.64,4.64,0,0,1-.55,2.33l1.11.12v-2.39Zm-.09-163.81v1.19l1.11,0C799.35,39.88,799,39.47,798.24,39.46Zm1.67,19.78c0,1.2-.55,1.78-1.66,1.74v.6a4.15,4.15,0,0,1,2.22,1.27c0-.4.19-.59.56-.58-.23-.49-.34-.73-.56-1.22v-.59l.55-1.18Zm1.16,85.06v1.79c.45.76.67,1.13,1.11,1.89-1.57-.13-2.86,2.57-3.88,8.06l1.11.69q1.11-3.49,3.88-3.27v-.6c-1.11-.09-1.7-.58-1.66-1.33s.46-1.16,1.11-1.11l2.77,2.62.56.05c0-1.6.36-2.37,1.1-2.31A3.49,3.49,0,0,0,805,148.2a4.89,4.89,0,0,0-.55,2.35l-.55,0a1.12,1.12,0,0,1-1.11-1.29q1.66-1.36,1.66-4.66a1.12,1.12,0,0,1-1.11-1.29l1.11.09v-1.2C802.18,143.09,801.07,143.8,801.07,144.3ZM798.78,24.52v1.2l2.78,0,.56-1.19L801,24A4.08,4.08,0,0,1,798.78,24.52Zm0,53.82v1.2l1.67.07v-1.2Zm1.72,87.46c0,.6-.56,1.35-1.66,2.25v.6l1.66.15c0-1.2.37-1.77,1.11-1.7A1.13,1.13,0,0,0,800.53,165.8Zm0,3.59c0,1.6-.55,2.35-1.66,2.25v1.19c.55,0,1.48.74,2.77,2,0,.81-.55,1.15-1.66,1.05v.59c.74.07,1.11.71,1.11,1.91.74.07,1.11-.3,1.11-1.1a.57.57,0,0,1-.56-.65q2.77-.78,3.88-4.43l-4.44-2.81ZM800.46,43.7v1.19l-1.11,0Q799.49,43.67,800.46,43.7Zm-1.1,20.91q.14,1.2,1.11,1.23l.56,0q0-1.2-1.11-1.23Zm.53-42.47v.6H801v-.6Zm.06,110.1v.6l1.66.12v-.6Zm.59,58.1v1.2l.56.06v-1.2Zm1.11,6.11-1.1,1.67v1.8l1.1-.48,1.67,1.38c0-.8.55-1.14,1.66-1v-.6Q803.87,199.08,801.65,196.45Zm-.58-58.14.55,1.24a4.56,4.56,0,0,0-.55,1.75,4,4,0,0,1,2.22-.43c-.22-.49-.34-.74-.56-1.24.37,0,.56-.16.56-.56l-1.11-.68Zm.52-64.64v.6l2.77.11-.55-1.22A4.1,4.1,0,0,1,801.59,73.67ZM803.8,63c0,.7-.55,1.28-1.66,1.74a5,5,0,0,1,.55,1.82l1.11,0c0-.8.37-1.19,1.11-1.16l-.55-1.22c.74,0,1.11-.36,1.11-1.16Zm-1.61,103v1.2l1.67.15a1.14,1.14,0,0,0-1.11-1.3Zm0,40.74v.6l1.67.18v-.6Zm.46-180.32v1.2a4,4,0,0,1,1.67.62h.56v-.6c-.75,0-1.12-.41-1.12-1.22Zm.08,155.21,1.11.11v.6l-1.11-.11ZM804.35,42c0-.4-.19-.61-.56-.62a4.7,4.7,0,0,1-.55,1.79,1.15,1.15,0,0,1,1.11,1.23V45l-1.11,0v.6l2.78.07c0-.8.18-1.2.55-1.19a5,5,0,0,1-.56-1.81,4.87,4.87,0,0,0,.56-1.79l-.56,0Zm0-16.2h.55c.75,0,1.12-.38,1.12-1.19h-.56A1.09,1.09,0,0,0,804.34,25.79Zm.06,129.56v.6a4.36,4.36,0,0,1,2.22,1.39l-1.1,2.31,1.1.69.56,0v-.6a5.25,5.25,0,0,1-.56-1.85c.74.06,1.11-.3,1.11-1.11v-2.4l-.55-.05A5.22,5.22,0,0,1,804.4,155.35Zm1.12,5.5a6.11,6.11,0,0,1-1.11,4.1,4.48,4.48,0,0,1,2.22,1.4l.55.05-.55-3.05c.73.06,1.1-.3,1.1-1.11-.66-.54-1-.81-1.66-1.34Zm-1.11,5.9c.09.81.46,1.24,1.11,1.3l.55,0v-1.2Zm.48-146.35v1.8l3.34.64v-1.2c0-.8-.37-1.21-1.11-1.22Zm0,9,1.11,0v1.2l-1.11,0ZM805,183l1.11.11v.6c0,.8-.37,1.16-1.11,1.09Zm1.61-123.55A7.65,7.65,0,0,1,806,63l1.11,0c.65,0,1.21-1.16,1.67-3.55Zm0,107.5c.09.81.46,1.24,1.11,1.3s1.11-.3,1.11-1.1Zm0,30.63v1.2l.56.06v-1.2Zm0,5.4v1.2l.55.06c.74.09,1.11-.27,1.11-1.07Zm1.1-37.73v.6l1.11.1v-.6Zm.5-118.37v1.81c0,.6.56,1.21,1.67,1.85l1.66,0V50a5.43,5.43,0,0,0-2.78-3.08Zm0,114.21v.6l1.66.15v-.6ZM809.9,40.91a4.75,4.75,0,0,1-.55,1.79c.37,0,.55.22.55.62l-1.11.57a5,5,0,0,1,.56,1.82c1.76,0,3-.93,3.89-2.92-.38-1.21-.75-1.82-1.12-1.83a3.81,3.81,0,0,1-1.66.56A.53.53,0,0,0,809.9,40.91ZM810,190.72v1.2q.15,1.22,1.11,1.32V192A1.15,1.15,0,0,0,810,190.72Zm.49-175.67v1.2H811v-1.2Zm2.78,6.65-2.22,3c.09.81.46,1.21,1.11,1.22l4.44-1.14V23.55l-2.77.57-1.12,0c0-.8.74-1.19,2.23-1.18v-.6A4,4,0,0,1,813.23,21.7Zm-1.05,174.07c0,1.2-.37,1.76-1.1,1.68a5.63,5.63,0,0,1,.55,2.47l.55.06c0-.8.56-1.14,1.67-1v-.6a5.17,5.17,0,0,1-1.11-2.53Zm-.06-159.63v.6l1.11,0v-.61Zm4.44-10.78c0,.51-1.11,1.09-3.33,1.76a5,5,0,0,1,.56,1.82L816,29q0-1.8,2.22-1.77C818.23,26.59,817.67,26,816.56,25.36Zm-1.11,4.81a5.07,5.07,0,0,1-.55,2.41l1.11,0c.74,0,1.11-.38,1.11-1.19s-.37-1.22-1.11-1.23Zm2.22-11.44c.23,1.21.34,1.82.56,3h1.11V20c0-.81-.37-1.22-1.11-1.22Z"/></g></g></svg>